<svg viewBox="0 0 40 40" xmlns="http://www.w3.org/2000/svg">
<path d="M33.1067 14.1084C33.3413 13.2853 33.3921 12.4208 33.2556 11.5759C33.1192 10.731 32.7987 9.92643 32.317 9.21906C31.8352 8.5117 31.2039 7.91883 30.4678 7.48238C29.7316 7.04594 28.9085 6.77659 28.0567 6.69337C27.7149 5.71273 27.0767 4.86259 26.2305 4.26062C25.3843 3.65865 24.3719 3.33461 23.3334 3.33337C22.0993 3.33755 20.9111 3.80098 20 4.63337C19.089 3.80098 17.9007 3.33755 16.6667 3.33337C14.4984 3.33337 12.65 4.71837 11.9584 6.69171C11.1051 6.77284 10.2801 7.04074 9.54198 7.47642C8.80384 7.9121 8.17062 8.50487 7.68724 9.21269C7.20385 9.92051 6.88215 10.726 6.74496 11.5721C6.60776 12.4182 6.65843 13.2841 6.89337 14.1084C5.82366 14.6779 4.92797 15.5262 4.30123 16.5635C3.6745 17.6007 3.34006 18.7882 3.33337 20C3.33337 21.7917 4.04671 23.4767 5.28671 24.72C5.09539 25.3512 4.99878 26.0072 5.00004 26.6667C5.00004 29.9284 7.35337 32.65 10.51 33.2234C10.9743 34.2469 11.7228 35.1156 12.6665 35.726C13.6102 36.3365 14.7094 36.663 15.8334 36.6667C17.465 36.6667 18.94 35.9884 20 34.9017C20.5408 35.4601 21.1884 35.9041 21.9041 36.2073C22.6199 36.5105 23.3894 36.6667 24.1667 36.6667C25.2889 36.6646 26.3867 36.3398 27.3294 35.7311C28.2721 35.1223 29.0198 34.2553 29.4834 33.2334C30.4133 33.0694 31.2979 32.7101 32.0787 32.1791C32.8595 31.6481 33.5188 30.9575 34.0131 30.153C34.5074 29.3484 34.8254 28.4481 34.9461 27.5116C35.0668 26.5751 34.9875 25.6236 34.7134 24.72C35.3333 24.1003 35.8249 23.3645 36.16 22.5545C36.4952 21.7446 36.6674 20.8766 36.6667 20C36.66 18.7882 36.3256 17.6007 35.6988 16.5635C35.0721 15.5262 34.1764 14.6779 33.1067 14.1084ZM15.8334 33.3334C14.6484 33.3334 13.6167 32.4934 13.3834 31.3367L13.03 30H11.6667C9.82837 30 8.33337 28.505 8.33337 26.6667C8.33337 26.08 8.47504 25.53 8.75504 25.0317L9.51504 23.6717L8.20837 22.8217C7.73645 22.5173 7.34818 22.0996 7.07892 21.6068C6.80965 21.114 6.66795 20.5616 6.66671 20C6.66671 18.3717 7.87171 16.96 9.47004 16.7134L12.2917 16.28L10.5267 14.0367C10.2124 13.6315 10.0301 13.1395 10.0045 12.6273C9.97891 12.1151 10.1112 11.6074 10.3836 11.1729C10.656 10.7384 11.0552 10.398 11.5273 10.1978C11.9994 9.99752 12.5217 9.94712 13.0234 10.0534L15 10.345V8.33337C15 7.89135 15.1756 7.46742 15.4882 7.15486C15.8008 6.8423 16.2247 6.66671 16.6667 6.66671C17.1087 6.66671 17.5327 6.8423 17.8452 7.15486C18.1578 7.46742 18.3334 7.89135 18.3334 8.33337V30.8334C18.3334 32.2117 17.2117 33.3334 15.8334 33.3334ZM31.7917 22.82L30.485 23.67L31.245 25.03C31.525 25.5323 31.6656 26.0778 31.6667 26.6667C31.6667 28.505 30.1717 30 28.25 30H26.8867L26.6167 31.3367C26.5008 31.9008 26.1937 32.4075 25.7473 32.7713C25.3009 33.1351 24.7426 33.3336 24.1667 33.3334C22.7884 33.3334 21.6667 32.2117 21.6667 30.8334V8.33337C21.6667 7.41337 22.4134 6.66671 23.3334 6.66671C24.2534 6.66671 25 7.41337 25 8.41671V10.4284L26.9767 10.0534C27.4784 9.94712 28.0006 9.99752 28.4728 10.1978C28.9449 10.398 29.3441 10.7384 29.6165 11.1729C29.8888 11.6074 30.0212 12.1151 29.9956 12.6273C29.97 13.1395 29.7877 13.6315 29.4734 14.0367L27.7084 16.2817L30.53 16.715C31.3111 16.8408 32.022 17.2404 32.5356 17.8422C33.0492 18.444 33.332 19.2089 33.3334 20C33.3334 21.1384 32.7567 22.1917 31.7917 22.82Z" />
</svg>
