<svg width="24" height="24" viewBox="0 0 24 24" fill="none" xmlns="http://www.w3.org/2000/svg">
<path d="M7.2 1.59998C7.38443 1.59994 7.5632 1.66362 7.70607 1.78025C7.84893 1.89687 7.94712 2.05928 7.984 2.23998L8 2.39998V11.2C7.99893 11.2266 7.99627 11.2528 7.992 11.2784C8.89577 11.4628 9.70808 11.9538 10.2915 12.6682C10.8749 13.3827 11.1935 14.2768 11.1935 15.1992C11.1935 16.1216 10.8749 17.0156 10.2915 17.7301C9.70808 18.4446 8.89577 18.9356 7.992 19.12L8 19.2V21.6L7.984 21.76C7.94728 21.9408 7.84916 22.1034 7.70628 22.2202C7.5634 22.337 7.38454 22.4008 7.2 22.4008C7.01546 22.4008 6.8366 22.337 6.69372 22.2202C6.55084 22.1034 6.45272 21.9408 6.416 21.76L6.4 21.6V19.2C6.4 19.1733 6.40213 19.1466 6.4064 19.12C5.50131 18.9371 4.68734 18.4468 4.10262 17.7321C3.5179 17.0175 3.19844 16.1226 3.19844 15.1992C3.19844 14.2758 3.5179 13.3809 4.10262 12.6662C4.68734 11.9516 5.50131 11.4612 6.4064 11.2784L6.4 11.2V2.39998C6.4 2.1878 6.48429 1.98432 6.63432 1.83429C6.78434 1.68426 6.98783 1.59998 7.2 1.59998ZM16.8 1.59998C16.9844 1.59994 17.1632 1.66362 17.3061 1.78025C17.4489 1.89687 17.5471 2.05928 17.584 2.23998L17.6 2.39998V4.79998L17.592 4.87838C18.4958 5.0628 19.3081 5.55378 19.8915 6.26825C20.4749 6.98271 20.7935 7.87678 20.7935 8.79917C20.7935 9.72157 20.4749 10.6156 19.8915 11.3301C19.3081 12.0446 18.4958 12.5356 17.592 12.72L17.6 12.8V21.6C17.6002 21.7984 17.5267 21.9898 17.3937 22.137C17.2607 22.2842 17.0778 22.3768 16.8804 22.3967C16.683 22.4167 16.4853 22.3625 16.3255 22.2449C16.1658 22.1272 16.0555 21.9544 16.016 21.76L16 21.6V12.8C16 12.7733 16.0021 12.7466 16.0064 12.72C15.1013 12.5371 14.2873 12.0468 13.7026 11.3321C13.1179 10.6175 12.7984 9.72255 12.7984 8.79917C12.7984 7.8758 13.1179 6.98086 13.7026 6.26621C14.2873 5.55156 15.1013 5.06121 16.0064 4.87838L16 4.79998V2.39998C16 2.1878 16.0843 1.98432 16.2343 1.83429C16.3843 1.68426 16.5878 1.59998 16.8 1.59998ZM7.2 12.8C6.56348 12.8 5.95303 13.0528 5.50294 13.5029C5.05286 13.953 4.8 14.5635 4.8 15.2C4.8 15.8365 5.05286 16.4469 5.50294 16.897C5.95303 17.3471 6.56348 17.6 7.2 17.6C7.83652 17.6 8.44697 17.3471 8.89706 16.897C9.34715 16.4469 9.6 15.8365 9.6 15.2C9.6 14.5635 9.34715 13.953 8.89706 13.5029C8.44697 13.0528 7.83652 12.8 7.2 12.8ZM16.8 6.39998C16.4848 6.39998 16.1727 6.46205 15.8816 6.58266C15.5904 6.70328 15.3258 6.88006 15.1029 7.10292C14.8801 7.32578 14.7033 7.59035 14.5827 7.88154C14.4621 8.17272 14.4 8.4848 14.4 8.79998C14.4 9.11515 14.4621 9.42723 14.5827 9.71842C14.7033 10.0096 14.8801 10.2742 15.1029 10.497C15.3258 10.7199 15.5904 10.8967 15.8816 11.0173C16.1727 11.1379 16.4848 11.2 16.8 11.2C17.4365 11.2 18.047 10.9471 18.4971 10.497C18.9471 10.0469 19.2 9.43649 19.2 8.79998C19.2 8.16346 18.9471 7.55301 18.4971 7.10292C18.047 6.65283 17.4365 6.39998 16.8 6.39998Z" fill="white" stroke="white" stroke-width="0.7"/>
</svg>
