<svg width="183" height="35" viewBox="0 0 183 35" fill="none" xmlns="http://www.w3.org/2000/svg">
<g clip-path="url(#clip0_12_53)">
<path d="M1.09375 13.125C0.492188 13.125 0 13.6172 0 14.2188V20.7812C0 21.3828 0.492188 21.875 1.09375 21.875C1.69531 21.875 2.1875 21.3828 2.1875 20.7812V14.2188C2.1875 13.6172 1.69531 13.125 1.09375 13.125ZM31.7188 13.125C31.1172 13.125 30.625 13.6172 30.625 14.2188V20.7812C30.625 21.3828 31.1172 21.875 31.7188 21.875C32.3203 21.875 32.8125 21.3828 32.8125 20.7812V14.2188C32.8125 13.6172 32.3203 13.125 31.7188 13.125ZM5.46875 6.5625C4.86719 6.5625 4.375 7.05469 4.375 7.65625V27.3438C4.375 27.9453 4.86719 28.4375 5.46875 28.4375C6.07031 28.4375 6.5625 27.9453 6.5625 27.3438V7.65625C6.5625 7.05469 6.07031 6.5625 5.46875 6.5625ZM9.84375 10.9375C9.24219 10.9375 8.75 11.4297 8.75 12.0312V22.9688C8.75 23.5703 9.24219 24.0625 9.84375 24.0625C10.4453 24.0625 10.9375 23.5703 10.9375 22.9688V12.0312C10.9375 11.4297 10.4453 10.9375 9.84375 10.9375ZM14.2188 15.3125C13.6172 15.3125 13.125 15.8047 13.125 16.4062V18.5938C13.125 19.1953 13.6172 19.6875 14.2188 19.6875C14.8203 19.6875 15.3125 19.1953 15.3125 18.5938V16.4062C15.3125 15.8047 14.8203 15.3125 14.2188 15.3125ZM18.5938 10.9375C17.9922 10.9375 17.5 11.4297 17.5 12.0312V22.9688C17.5 23.5703 17.9922 24.0625 18.5938 24.0625C19.1953 24.0625 19.6875 23.5703 19.6875 22.9688V12.0312C19.6875 11.4297 19.1953 10.9375 18.5938 10.9375ZM22.9688 2.1875C22.3672 2.1875 21.875 2.67969 21.875 3.28125V31.7188C21.875 32.3203 22.3672 32.8125 22.9688 32.8125C23.5703 32.8125 24.0625 32.3203 24.0625 31.7188V3.28125C24.0625 2.67969 23.5703 2.1875 22.9688 2.1875ZM27.3438 6.5625C26.7422 6.5625 26.25 7.05469 26.25 7.65625V27.3438C26.25 27.9453 26.7422 28.4375 27.3438 28.4375C27.9453 28.4375 28.4375 27.9453 28.4375 27.3438V7.65625C28.4375 7.05469 27.9453 6.5625 27.3438 6.5625Z" fill="white"/>
<path d="M52.968 27.32C51.752 27.32 50.6427 27.032 49.64 26.456C48.6587 25.8587 47.88 25.0267 47.304 23.96C46.728 22.872 46.44 21.624 46.44 20.216C46.44 18.744 46.7387 17.4853 47.336 16.44C47.9547 15.3947 48.7867 14.5947 49.832 14.04C50.8773 13.4853 52.0507 13.208 53.352 13.208C54.3973 13.208 55.3893 13.432 56.328 13.88C57.288 14.328 58.0347 14.9467 58.568 15.736L58.44 16.792V2.232H61.384V27H58.408V23.704L58.728 24.536C58.1093 25.3467 57.3093 26.0187 56.328 26.552C55.3467 27.064 54.2267 27.32 52.968 27.32ZM53.896 24.792C54.6853 24.792 55.3893 24.6533 56.008 24.376C56.6267 24.0773 57.1387 23.672 57.544 23.16C57.9493 22.648 58.2373 22.04 58.408 21.336V18.84C58.2373 18.2 57.928 17.6453 57.48 17.176C57.0533 16.6853 56.5307 16.3013 55.912 16.024C55.3147 15.7253 54.6427 15.576 53.896 15.576C53.0853 15.576 52.3387 15.7787 51.656 16.184C50.9947 16.568 50.4613 17.1013 50.056 17.784C49.6507 18.4667 49.448 19.256 49.448 20.152C49.448 21.0267 49.6507 21.816 50.056 22.52C50.4613 23.2027 51.0053 23.7573 51.688 24.184C52.3707 24.5893 53.1067 24.792 53.896 24.792ZM69.2168 13.752L69.5048 17.592L69.3448 17.08C69.6861 16.2693 70.1768 15.5867 70.8168 15.032C71.4781 14.456 72.1608 14.0187 72.8648 13.72C73.5901 13.4 74.2194 13.24 74.7528 13.24L74.5928 16.184C73.5901 16.12 72.7048 16.312 71.9368 16.76C71.1901 17.208 70.5928 17.8053 70.1448 18.552C69.7181 19.2987 69.5048 20.0987 69.5048 20.952V27H66.5608V13.752H69.2168ZM83.7835 27.32C82.5462 27.32 81.4155 27.0533 80.3915 26.52C79.3888 25.9867 78.5888 25.208 77.9915 24.184C77.4155 23.1387 77.1275 21.8693 77.1275 20.376C77.1275 18.904 77.4368 17.6347 78.0555 16.568C78.6742 15.48 79.4955 14.648 80.5195 14.072C81.5648 13.496 82.7062 13.208 83.9435 13.208C85.1808 13.208 86.2262 13.496 87.0795 14.072C87.9328 14.6267 88.5835 15.288 89.0315 16.056L88.8395 16.568L89.1275 13.752H91.8795V27H88.9035V23.544L89.2235 24.312C89.1382 24.5253 88.9462 24.8027 88.6475 25.144C88.3702 25.464 87.9862 25.7947 87.4955 26.136C87.0262 26.4773 86.4822 26.7653 85.8635 27C85.2448 27.2133 84.5515 27.32 83.7835 27.32ZM84.5835 24.856C85.3302 24.856 86.0022 24.7173 86.5995 24.44C87.1968 24.1627 87.6875 23.7787 88.0715 23.288C88.4768 22.776 88.7542 22.168 88.9035 21.464V18.872C88.7328 18.232 88.4342 17.6773 88.0075 17.208C87.5808 16.7173 87.0688 16.344 86.4715 16.088C85.8742 15.8107 85.2128 15.672 84.4875 15.672C83.6982 15.672 82.9728 15.864 82.3115 16.248C81.6502 16.632 81.1168 17.1653 80.7115 17.848C80.3275 18.5307 80.1355 19.3307 80.1355 20.248C80.1355 21.1013 80.3382 21.88 80.7435 22.584C81.1488 23.288 81.6928 23.8427 82.3755 24.248C83.0582 24.6533 83.7942 24.856 84.5835 24.856ZM103.398 33.56C102.416 33.56 101.552 33.4427 100.806 33.208C100.059 32.9947 99.3762 32.6853 98.7575 32.28C98.1602 31.8747 97.5842 31.416 97.0295 30.904L98.7575 28.888C99.4615 29.5493 100.176 30.0613 100.902 30.424C101.627 30.7867 102.438 30.968 103.334 30.968C104.336 30.968 105.179 30.7973 105.862 30.456C106.566 30.136 107.099 29.6773 107.462 29.08C107.824 28.504 108.006 27.832 108.006 27.064L108.038 23.48L108.294 24.056C107.91 24.9733 107.216 25.752 106.214 26.392C105.211 27.0107 103.995 27.32 102.566 27.32C101.35 27.32 100.23 27.0107 99.2055 26.392C98.2028 25.7733 97.3922 24.9413 96.7735 23.896C96.1762 22.8293 95.8775 21.6347 95.8775 20.312C95.8775 18.9253 96.1975 17.7093 96.8375 16.664C97.4775 15.5973 98.3202 14.7547 99.3655 14.136C100.411 13.5173 101.552 13.208 102.79 13.208C103.963 13.208 105.03 13.4533 105.99 13.944C106.971 14.4133 107.686 15.0213 108.134 15.768L107.974 16.312L108.294 13.752H111.014V27.096C111.014 28.2907 110.704 29.3787 110.086 30.36C109.467 31.3413 108.592 32.12 107.462 32.696C106.331 33.272 104.976 33.56 103.398 33.56ZM98.8535 20.248C98.8535 21.1013 99.0562 21.88 99.4615 22.584C99.8668 23.288 100.411 23.8427 101.094 24.248C101.798 24.6533 102.576 24.856 103.43 24.856C104.219 24.856 104.923 24.7173 105.542 24.44C106.182 24.1413 106.715 23.7467 107.142 23.256C107.568 22.744 107.867 22.1573 108.038 21.496V18.872C107.846 18.232 107.526 17.6773 107.078 17.208C106.63 16.7173 106.096 16.344 105.478 16.088C104.859 15.8107 104.176 15.672 103.43 15.672C102.576 15.672 101.798 15.864 101.094 16.248C100.411 16.632 99.8668 17.176 99.4615 17.88C99.0562 18.5627 98.8535 19.352 98.8535 20.248ZM121.659 27.32C120.421 27.32 119.291 27.0533 118.266 26.52C117.264 25.9867 116.464 25.208 115.867 24.184C115.291 23.1387 115.003 21.8693 115.003 20.376C115.003 18.904 115.312 17.6347 115.931 16.568C116.549 15.48 117.371 14.648 118.395 14.072C119.44 13.496 120.581 13.208 121.819 13.208C123.056 13.208 124.101 13.496 124.955 14.072C125.808 14.6267 126.459 15.288 126.907 16.056L126.715 16.568L127.003 13.752H129.755V27H126.779V23.544L127.099 24.312C127.013 24.5253 126.821 24.8027 126.523 25.144C126.245 25.464 125.861 25.7947 125.371 26.136C124.901 26.4773 124.357 26.7653 123.739 27C123.12 27.2133 122.427 27.32 121.659 27.32ZM122.459 24.856C123.205 24.856 123.877 24.7173 124.475 24.44C125.072 24.1627 125.563 23.7787 125.947 23.288C126.352 22.776 126.629 22.168 126.779 21.464V18.872C126.608 18.232 126.309 17.6773 125.883 17.208C125.456 16.7173 124.944 16.344 124.347 16.088C123.749 15.8107 123.088 15.672 122.363 15.672C121.573 15.672 120.848 15.864 120.187 16.248C119.525 16.632 118.992 17.1653 118.587 17.848C118.203 18.5307 118.011 19.3307 118.011 20.248C118.011 21.1013 118.213 21.88 118.619 22.584C119.024 23.288 119.568 23.8427 120.251 24.248C120.933 24.6533 121.669 24.856 122.459 24.856ZM137.561 13.752L137.817 16.984L137.689 16.472C138.115 15.4907 138.809 14.712 139.769 14.136C140.729 13.5387 141.838 13.24 143.097 13.24C144.355 13.24 145.379 13.6133 146.169 14.36C146.979 15.0853 147.395 16.0347 147.417 17.208V27H144.409V18.264C144.387 17.5387 144.174 16.952 143.769 16.504C143.385 16.0347 142.777 15.8 141.945 15.8C141.177 15.8 140.483 16.0133 139.865 16.44C139.246 16.8667 138.755 17.4533 138.393 18.2C138.051 18.9467 137.881 19.8107 137.881 20.792V27H134.905V13.752H137.561ZM151.44 20.248C151.44 18.9253 151.749 17.7307 152.368 16.664C153.008 15.5973 153.883 14.7547 154.992 14.136C156.101 13.5173 157.36 13.208 158.768 13.208C160.219 13.208 161.488 13.5173 162.576 14.136C163.664 14.7547 164.507 15.5973 165.104 16.664C165.701 17.7307 166 18.9253 166 20.248C166 21.5707 165.701 22.776 165.104 23.864C164.507 24.9307 163.653 25.7733 162.544 26.392C161.456 27.0107 160.187 27.32 158.736 27.32C157.328 27.32 156.069 27.032 154.96 26.456C153.872 25.8587 153.008 25.0373 152.368 23.992C151.749 22.9253 151.44 21.6773 151.44 20.248ZM154.416 20.28C154.416 21.1333 154.608 21.912 154.992 22.616C155.376 23.2987 155.888 23.8427 156.528 24.248C157.189 24.6533 157.915 24.856 158.704 24.856C159.536 24.856 160.272 24.6533 160.912 24.248C161.573 23.8427 162.085 23.2987 162.448 22.616C162.811 21.912 162.992 21.1333 162.992 20.28C162.992 19.4267 162.811 18.6587 162.448 17.976C162.085 17.272 161.573 16.7173 160.912 16.312C160.272 15.8853 159.536 15.672 158.704 15.672C157.893 15.672 157.157 15.8853 156.496 16.312C155.856 16.7387 155.344 17.304 154.96 18.008C154.597 18.6907 154.416 19.448 154.416 20.28ZM174.999 27.384L167.639 13.752H171.159L176.151 24.28L174.327 24.216L178.903 13.752H182.231L175.159 27.384H174.999Z" fill="white"/>
</g>
<defs>
<clipPath id="clip0_12_53">
<rect width="183" height="35" fill="white"/>
</clipPath>
</defs>
</svg>
