<svg width="29" height="29" viewBox="0 0 29 29" fill="none" xmlns="http://www.w3.org/2000/svg">
<path d="M10.875 20.5417C10.875 20.5417 19.3333 21.75 22.9583 25.375H24.1667C24.4871 25.375 24.7945 25.2477 25.0211 25.0211C25.2477 24.7945 25.375 24.4871 25.375 24.1667V16.8405C25.8943 16.707 26.3544 16.4046 26.683 15.9809C27.0116 15.5571 27.1899 15.0362 27.1899 14.5C27.1899 13.9638 27.0116 13.4429 26.683 13.0191C26.3544 12.5954 25.8943 12.293 25.375 12.1595V4.83333C25.375 4.51286 25.2477 4.20552 25.0211 3.97891C24.7945 3.75231 24.4871 3.625 24.1667 3.625H22.9583C19.3333 7.25 10.875 8.45833 10.875 8.45833H6.04167C5.40073 8.45833 4.78604 8.71295 4.33283 9.16616C3.87961 9.61937 3.625 10.2341 3.625 10.875V18.125C3.625 18.7659 3.87961 19.3806 4.33283 19.8338C4.78604 20.2871 5.40073 20.5417 6.04167 20.5417H7.25L8.45833 26.5833H10.875V20.5417ZM13.2917 10.4654C14.117 10.289 15.1368 10.0425 16.24 9.71983C18.2676 9.12292 20.8437 8.18404 22.9583 6.73525V22.2635C20.8437 20.816 18.2664 19.8771 16.24 19.2802C15.2667 18.9958 14.2833 18.7475 13.2917 18.5358V10.4654ZM6.04167 10.875H10.875V18.125H6.04167V10.875Z" fill="white"/>
</svg>
