<svg width="25" height="25" viewBox="0 0 25 25" fill="none" xmlns="http://www.w3.org/2000/svg">
<path d="M21.8749 3.125V16.1458C21.8749 17.1128 21.4908 18.0401 20.8071 18.7238C20.1234 19.4076 19.196 19.7917 18.2291 19.7917C17.2622 19.7917 16.3348 19.4076 15.6511 18.7238C14.9674 18.0401 14.5833 17.1128 14.5833 16.1458C14.5833 15.1789 14.9674 14.2516 15.6511 13.5678C16.3348 12.8841 17.2622 12.5 18.2291 12.5C18.7916 12.5 19.3228 12.625 19.7916 12.8542V6.73958L9.37492 8.95833V18.2292C9.37492 19.1961 8.99081 20.1234 8.30708 20.8072C7.62335 21.4909 6.69602 21.875 5.72909 21.875C4.76215 21.875 3.83482 21.4909 3.15109 20.8072C2.46737 20.1234 2.08325 19.1961 2.08325 18.2292C2.08325 17.2622 2.46737 16.3349 3.15109 15.6512C3.83482 14.9674 4.76215 14.5833 5.72909 14.5833C6.29159 14.5833 6.82284 14.7083 7.29159 14.9375V6.25L21.8749 3.125Z" fill="white"/>
</svg>
