<svg width="29" height="29" viewBox="0 0 29 29" fill="none" xmlns="http://www.w3.org/2000/svg">
<path d="M14.5 18C13.4931 18 12.6372 17.6476 11.9323 16.9427C11.2275 16.2378 10.8751 15.3819 10.8751 14.375V7.125C10.8751 6.11806 11.2275 5.26215 11.9323 4.55729C12.6372 3.85243 13.4931 3.5 14.5 3.5C15.507 3.5 16.3629 3.85243 17.0678 4.55729C17.7726 5.26215 18.125 6.11806 18.125 7.125V14.375C18.125 15.3819 17.7726 16.2378 17.0678 16.9427C16.3629 17.6476 15.507 18 14.5 18ZM13.2917 25.25V22.7427C11.4389 22.4809 9.8532 21.6955 8.53451 20.3865C7.21581 19.0774 6.41509 17.4865 6.13234 15.6135C6.09206 15.2712 6.18269 14.9792 6.40422 14.7375C6.62574 14.4958 6.90769 14.375 7.25005 14.375C7.59241 14.375 7.87959 14.491 8.11159 14.723C8.34359 14.955 8.49947 15.2418 8.57922 15.5833C8.86116 16.9931 9.56119 18.151 10.6793 19.0573C11.7974 19.9635 13.071 20.4167 14.5 20.4167C15.95 20.4167 17.2289 19.9587 18.3365 19.0428C19.4441 18.1269 20.1389 16.9737 20.4209 15.5833C20.5014 15.241 20.6577 14.9542 20.8897 14.723C21.1217 14.4918 21.4085 14.3758 21.75 14.375C22.0916 14.3742 22.3736 14.495 22.5959 14.7375C22.8182 14.98 22.9088 15.272 22.8678 15.6135C22.5858 17.4462 21.7903 19.0271 20.4813 20.3563C19.1723 21.6854 17.5813 22.4809 15.7084 22.7427V25.25C15.7084 25.5924 15.5924 25.8795 15.3604 26.1115C15.1284 26.3435 14.8416 26.4591 14.5 26.4583C14.1585 26.4575 13.8717 26.3415 13.6397 26.1103C13.4077 25.8791 13.2917 25.5924 13.2917 25.25ZM14.5 15.5833C14.8424 15.5833 15.1296 15.4673 15.3616 15.2353C15.5936 15.0033 15.7092 14.7166 15.7084 14.375V7.125C15.7084 6.78264 15.5924 6.49586 15.3604 6.26467C15.1284 6.03347 14.8416 5.91747 14.5 5.91667C14.1585 5.91586 13.8717 6.03186 13.6397 6.26467C13.4077 6.49747 13.2917 6.78425 13.2917 7.125V14.375C13.2917 14.7174 13.4077 15.0045 13.6397 15.2365C13.8717 15.4685 14.1585 15.5841 14.5 15.5833Z" fill="white"/>
</svg>
