<svg width="29" height="29" viewBox="0 0 29 29" fill="none" xmlns="http://www.w3.org/2000/svg">
<path d="M14.5 14.5C13.1708 14.5 12.033 14.0267 11.0865 13.0802C10.1399 12.1337 9.66666 10.9958 9.66666 9.66665C9.66666 8.33748 10.1399 7.19963 11.0865 6.2531C12.033 5.30658 13.1708 4.83331 14.5 4.83331C15.8292 4.83331 16.967 5.30658 17.9135 6.2531C18.8601 7.19963 19.3333 8.33748 19.3333 9.66665C19.3333 10.9958 18.8601 12.1337 17.9135 13.0802C16.967 14.0267 15.8292 14.5 14.5 14.5ZM4.83333 24.1666V20.7833C4.83333 20.0986 5.00975 19.4695 5.36258 18.8959C5.71541 18.3223 6.18344 17.8841 6.76666 17.5812C8.01527 16.9569 9.28402 16.4889 10.5729 16.1771C11.8618 15.8654 13.1708 15.7091 14.5 15.7083C15.8292 15.7075 17.1382 15.8638 18.4271 16.1771C19.716 16.4905 20.9847 16.9585 22.2333 17.5812C22.8174 17.8833 23.2858 18.3215 23.6386 18.8959C23.9915 19.4703 24.1675 20.0994 24.1667 20.7833V24.1666H4.83333ZM7.24999 21.75H21.75V20.7833C21.75 20.5618 21.6948 20.3604 21.5845 20.1791C21.4741 19.9979 21.3279 19.8569 21.1458 19.7562C20.0583 19.2125 18.9608 18.8049 17.8531 18.5334C16.7455 18.2619 15.6278 18.1258 14.5 18.125C13.3722 18.1242 12.2545 18.2603 11.1469 18.5334C10.0392 18.8065 8.94166 19.2141 7.85416 19.7562C7.67291 19.8569 7.5267 19.9979 7.41554 20.1791C7.30437 20.3604 7.24919 20.5618 7.24999 20.7833V21.75ZM14.5 12.0833C15.1646 12.0833 15.7337 11.8469 16.2074 11.374C16.681 10.9012 16.9175 10.332 16.9167 9.66665C16.9159 9.00126 16.6794 8.43254 16.2074 7.96048C15.7353 7.48842 15.1662 7.25159 14.5 7.24998C13.8338 7.24837 13.2651 7.4852 12.7938 7.96048C12.3226 8.43576 12.0857 9.00448 12.0833 9.66665C12.0809 10.3288 12.3177 10.8979 12.7938 11.374C13.2699 11.8501 13.8386 12.0865 14.5 12.0833Z" fill="#8FFF66"/>
</svg>
