<svg width="50" height="50" viewBox="0 0 50 50" fill="none" xmlns="http://www.w3.org/2000/svg">
<g>
<path d="M23.8958 33.9125C24.1888 34.2051 24.5859 34.3695 25 34.3695C25.414 34.3695 25.8112 34.2051 26.1041 33.9125L30.7916 29.2271C31.0676 28.9309 31.2179 28.5391 31.2108 28.1343C31.2036 27.7295 31.0396 27.3433 30.7534 27.057C30.4671 26.7708 30.0809 26.6068 29.6761 26.5996C29.2713 26.5925 28.8795 26.7427 28.5833 27.0187L25 30.5958L21.4166 27.0146C21.2724 26.8654 21.1 26.7465 20.9093 26.6647C20.7186 26.5829 20.5136 26.5399 20.3061 26.5382C20.0986 26.5365 19.8929 26.5761 19.7009 26.6547C19.5089 26.7334 19.3345 26.8495 19.1879 26.9963C19.0413 27.1431 18.9253 27.3176 18.8468 27.5096C18.7684 27.7017 18.7289 27.9075 18.7308 28.1149C18.7327 28.3224 18.7759 28.5274 18.8579 28.718C18.9399 28.9086 19.059 29.0809 19.2083 29.225L23.8958 33.9125ZM25 18.8646C24.5579 18.8646 24.134 18.689 23.8215 18.3764C23.5089 18.0639 23.3333 17.6399 23.3333 17.1979C23.3333 16.7559 23.5089 16.332 23.8215 16.0194C24.134 15.7068 24.5579 15.5312 25 15.5312C25.442 15.5312 25.8659 15.7068 26.1785 16.0194C26.491 16.332 26.6666 16.7559 26.6666 17.1979C26.6666 17.6399 26.491 18.0639 26.1785 18.3764C25.8659 18.689 25.442 18.8646 25 18.8646ZM23.3333 23.0646C23.3333 23.2835 23.3764 23.5002 23.4602 23.7024C23.5439 23.9046 23.6667 24.0883 23.8215 24.2431C23.9762 24.3979 24.16 24.5206 24.3622 24.6044C24.5644 24.6881 24.7811 24.7313 25 24.7313C25.2188 24.7313 25.4356 24.6881 25.6378 24.6044C25.84 24.5206 26.0237 24.3979 26.1785 24.2431C26.3333 24.0883 26.456 23.9046 26.5398 23.7024C26.6235 23.5002 26.6666 23.2835 26.6666 23.0646C26.6666 22.6226 26.491 22.1986 26.1785 21.8861C25.8659 21.5735 25.442 21.3979 25 21.3979C24.5579 21.3979 24.134 21.5735 23.8215 21.8861C23.5089 22.1986 23.3333 22.6226 23.3333 23.0646Z" fill="#FF9866"/>
<path fill-rule="evenodd" clip-rule="evenodd" d="M25 4.16876C20.856 4.16876 16.8817 5.81496 13.9515 8.74522C11.0212 11.6755 9.375 15.6498 9.375 19.7938V30.2104C9.375 34.3544 11.0212 38.3287 13.9515 41.259C16.8817 44.1892 20.856 45.8354 25 45.8354C29.144 45.8354 33.1183 44.1892 36.0485 41.259C38.9788 38.3287 40.625 34.3544 40.625 30.2104V19.7938C40.625 15.6498 38.9788 11.6755 36.0485 8.74522C33.1183 5.81496 29.144 4.16876 25 4.16876ZM12.5 19.7938C12.5 16.4786 13.817 13.2991 16.1612 10.9549C18.5054 8.61072 21.6848 7.29376 25 7.29376C28.3152 7.29376 31.4946 8.61072 33.8388 10.9549C36.183 13.2991 37.5 16.4786 37.5 19.7938V30.2104C37.5 33.5256 36.183 36.7051 33.8388 39.0493C31.4946 41.3935 28.3152 42.7104 25 42.7104C21.6848 42.7104 18.5054 41.3935 16.1612 39.0493C13.817 36.7051 12.5 33.5256 12.5 30.2104V19.7938Z" fill="#FF9866"/>
</g>
</svg>
