<svg width="20" height="20" viewBox="0 0 20 20" fill="none" xmlns="http://www.w3.org/2000/svg">
<path d="M12.5 3.54162V16.455C12.5 17.3541 11.4383 17.8308 10.7666 17.2333L7.02329 13.905C6.90889 13.8034 6.76124 13.7474 6.60829 13.7475H3.54163C3.2954 13.7475 3.05158 13.699 2.82409 13.6047C2.59661 13.5105 2.38991 13.3724 2.2158 13.1983C2.04169 13.0242 1.90358 12.8175 1.80935 12.59C1.71512 12.3625 1.66663 12.1187 1.66663 11.8725V8.12412C1.66685 7.62698 1.86449 7.15028 2.2161 6.79883C2.5677 6.44738 3.04449 6.24995 3.54163 6.24995H6.60829C6.76135 6.24977 6.90901 6.19343 7.02329 6.09162L10.7658 2.76412C11.4383 2.16662 12.5 2.64328 12.5 3.54162ZM15.8266 4.91495C15.9598 4.81629 16.1267 4.77456 16.2906 4.79893C16.4546 4.82331 16.6021 4.91181 16.7008 5.04495C17.7636 6.47845 18.336 8.2163 18.3333 10.0008C18.3356 11.7851 17.7629 13.5226 16.7 14.9558C16.6002 15.0861 16.4533 15.172 16.2908 15.1949C16.1283 15.2178 15.9633 15.1759 15.8314 15.0782C15.6996 14.9805 15.6115 14.8348 15.5861 14.6727C15.5607 14.5106 15.6001 14.3449 15.6958 14.2116C16.5991 12.9937 17.0857 11.5171 17.0833 10.0008C17.0858 8.4842 16.5993 7.00722 15.6958 5.78912C15.6469 5.7231 15.6114 5.64808 15.5915 5.56836C15.5716 5.48863 15.5676 5.40576 15.5797 5.32448C15.5919 5.24321 15.62 5.16513 15.6623 5.09472C15.7047 5.0243 15.7605 4.96376 15.8266 4.91495ZM14.2858 6.97495C14.358 6.93581 14.4371 6.91127 14.5188 6.90274C14.6004 6.8942 14.683 6.90184 14.7617 6.92521C14.8404 6.94858 14.9137 6.98723 14.9775 7.03894C15.0412 7.09066 15.0942 7.15443 15.1333 7.22662C15.58 8.05162 15.8333 8.99745 15.8333 10.0008C15.8337 10.969 15.5932 11.9221 15.1333 12.7741C15.0942 12.8463 15.0413 12.9102 14.9776 12.9619C14.9138 13.0137 14.8405 13.0524 14.7618 13.0759C14.6831 13.0993 14.6006 13.1071 14.5189 13.0986C14.4372 13.0901 14.358 13.0657 14.2858 13.0266C14.2136 12.9875 14.1497 12.9346 14.098 12.8709C14.0462 12.8072 14.0075 12.7339 13.984 12.6552C13.9606 12.5765 13.9529 12.4939 13.9613 12.4122C13.9698 12.3306 13.9942 12.2513 14.0333 12.1791C14.3945 11.5099 14.5835 10.7613 14.5833 10.0008C14.5833 9.21079 14.3833 8.46912 14.0333 7.82162C13.9546 7.67584 13.9369 7.50478 13.9843 7.34602C14.0316 7.18726 14.1401 7.05379 14.2858 6.97495Z" fill="white"/>
</svg>
