<svg width="40" height="40" viewBox="0 0 40 40">
<path d="M17.4167 25.8333C18.0834 26.5 18.9445 26.8266 20 26.8133C21.0556 26.8 21.8334 26.4177 22.3334 25.6666L29.375 15.125C29.625 14.7361 29.5906 14.3816 29.2717 14.0616C28.9528 13.7416 28.5984 13.7072 28.2084 13.9583L17.6667 21C16.9167 21.5 16.5212 22.2638 16.48 23.2916C16.4389 24.3194 16.7512 25.1666 17.4167 25.8333ZM20 6.66663C21 6.66663 21.9862 6.74996 22.9584 6.91663C23.9306 7.08329 24.875 7.34718 25.7917 7.70829C26.2362 7.87496 26.7084 8.18774 27.2084 8.64663C27.7084 9.10552 27.8473 9.54274 27.625 9.95829C27.4028 10.3738 26.9028 10.6516 26.125 10.7916C25.3473 10.9316 24.7223 10.9177 24.25 10.75C23.5556 10.5 22.8545 10.3127 22.1467 10.1883C21.4389 10.0638 20.7234 10.0011 20 9.99996C16.3056 9.99996 13.1595 11.2988 10.5617 13.8966C7.96393 16.4944 6.6656 19.64 6.66671 23.3333C6.66671 24.5 6.82671 25.6527 7.14671 26.7916C7.46671 27.9305 7.91782 29 8.50004 30H31.5C32.1389 28.9444 32.6045 27.8472 32.8967 26.7083C33.1889 25.5694 33.3345 24.3888 33.3334 23.1666C33.3334 22.4444 33.2706 21.7361 33.145 21.0416C33.0195 20.3472 32.8323 19.6666 32.5834 19C32.4167 18.5277 32.3889 18.0694 32.5 17.625C32.6112 17.1805 32.8612 16.8055 33.25 16.5C33.6112 16.2222 34.0073 16.1388 34.4384 16.25C34.8695 16.3611 35.1678 16.6111 35.3334 17C35.75 17.9722 36.0695 18.9655 36.2917 19.98C36.5139 20.9944 36.6389 22.0288 36.6667 23.0833C36.6945 24.6666 36.5139 26.1805 36.125 27.625C35.7362 29.0694 35.1667 30.4444 34.4167 31.75C34.1112 32.25 33.6945 32.6388 33.1667 32.9166C32.6389 33.1944 32.0834 33.3333 31.5 33.3333H8.50004C7.91671 33.3333 7.36115 33.1944 6.83337 32.9166C6.3056 32.6388 5.88893 32.25 5.58337 31.75C4.86115 30.5 4.3056 29.1738 3.91671 27.7716C3.52782 26.3694 3.33337 24.89 3.33337 23.3333C3.33337 21.0277 3.77115 18.8683 4.64671 16.855C5.52226 14.8416 6.71671 13.0777 8.23004 11.5633C9.74337 10.0488 11.5139 8.8544 13.5417 7.97996C15.5695 7.10552 17.7223 6.66774 20 6.66663Z" />
</svg>
