<svg width="40" height="40" viewBox="0 0 40 40" >
<path  d="M20 3.33337C20.6256 3.33337 21.2423 3.36726 21.85 3.43504C22.0676 3.45912 22.2783 3.52581 22.4701 3.63131C22.6618 3.7368 22.831 3.87904 22.9678 4.0499C23.1046 4.22076 23.2064 4.4169 23.2674 4.62711C23.3284 4.83732 23.3474 5.05748 23.3234 5.27504C23.2993 5.4926 23.2326 5.70328 23.1271 5.89506C23.0216 6.08685 22.8794 6.25597 22.7085 6.39278C22.5377 6.5296 22.3415 6.63141 22.1313 6.69243C21.9211 6.75344 21.7009 6.77245 21.4834 6.74837C18.7368 6.44111 15.9626 6.99494 13.5445 8.33325C11.1264 9.67155 9.18396 11.7282 7.98582 14.2187C6.78767 16.7092 6.39304 19.5105 6.85653 22.2351C7.32001 24.9597 8.61869 27.4729 10.5729 29.4271C12.5272 31.3814 15.0404 32.6801 17.765 33.1436C20.4896 33.607 23.2909 33.2124 25.7814 32.0143C28.2719 30.8161 30.3285 28.8737 31.6668 26.4556C33.0051 24.0375 33.559 21.2633 33.2517 18.5167C33.2276 18.2991 33.2466 18.079 33.3077 17.8688C33.3687 17.6586 33.4705 17.4624 33.6073 17.2916C33.8836 16.9465 34.2857 16.7253 34.725 16.6767C35.1644 16.6281 35.6051 16.756 35.9502 17.0323C36.121 17.1691 36.2633 17.3382 36.3688 17.53C36.4743 17.7218 36.541 17.9325 36.565 18.15C36.6317 18.7578 36.6656 19.3745 36.6667 20C36.6667 29.205 29.205 36.6667 20 36.6667C10.795 36.6667 3.33337 29.205 3.33337 20C3.33337 10.795 10.795 3.33337 20 3.33337ZM19.9467 13.1284C20.0565 13.5562 19.992 14.0102 19.7673 14.3906C19.5426 14.7709 19.1761 15.0464 18.7484 15.1567C17.5732 15.4646 16.5501 16.1895 15.8701 17.1962C15.1901 18.203 14.8996 19.4227 15.0529 20.6279C15.2061 21.833 15.7926 22.9413 16.7029 23.7458C17.6132 24.5503 18.7852 24.9961 20 25C21.1089 25.0005 22.1864 24.6324 23.0632 23.9535C23.9399 23.2747 24.5662 22.3237 24.8434 21.25C24.9615 20.8306 25.2392 20.4742 25.617 20.257C25.9947 20.0398 26.4425 19.9792 26.8644 20.0882C27.2863 20.1972 27.6487 20.467 27.8741 20.8399C28.0994 21.2129 28.1698 21.6592 28.07 22.0834C27.5588 24.0433 26.3514 25.75 24.6736 26.8847C22.9958 28.0194 20.9623 28.5044 18.953 28.2492C16.9436 27.994 15.0959 27.016 13.7551 25.4979C12.4142 23.9798 11.6718 22.0255 11.6667 20C11.6664 18.1524 12.2802 16.357 13.4116 14.8962C14.5429 13.4353 16.1277 12.392 17.9167 11.93C18.1287 11.8754 18.3493 11.8631 18.5661 11.8937C18.7828 11.9244 18.9914 11.9974 19.1799 12.1087C19.3684 12.22 19.5332 12.3673 19.6647 12.5423C19.7963 12.7172 19.8921 12.9164 19.9467 13.1284ZM30.84 3.54504C31.1443 3.67117 31.4043 3.8846 31.5873 4.15839C31.7703 4.43218 31.8681 4.75405 31.8684 5.08337V8.13337H34.9167C35.2463 8.13344 35.5685 8.23123 35.8425 8.41437C36.1165 8.59751 36.3301 8.85778 36.4562 9.16228C36.5823 9.46678 36.6153 9.80184 36.551 10.1251C36.4867 10.4483 36.3281 10.7453 36.095 10.9784L30.2 16.8667C29.8876 17.1793 29.4637 17.3549 29.0217 17.355H25L21.9534 20.4034C21.6406 20.7161 21.2165 20.8918 20.7742 20.8918C20.3319 20.8918 19.9078 20.7161 19.595 20.4034C19.2823 20.0906 19.1066 19.6665 19.1066 19.2242C19.1066 18.7819 19.2823 18.3578 19.595 18.045L22.6434 15V10.9767C22.6435 10.5347 22.8191 10.1109 23.1317 9.79837L29.0234 3.90504C29.2564 3.67182 29.5535 3.51297 29.8768 3.44859C30.2002 3.38421 30.5354 3.4172 30.84 3.54337M28.535 9.10504L25.9767 11.6667V14.0234H28.3334L30.8934 11.465H30.2017C29.7597 11.465 29.3358 11.2894 29.0232 10.9769C28.7106 10.6643 28.535 10.2404 28.535 9.79837V9.10504Z"/>
</svg>
