<svg width="40" height="40" viewBox="0 0 40 40" fill="none" xmlns="http://www.w3.org/2000/svg">
<path d="M1.25 15C0.5625 15 0 15.5625 0 16.25V23.75C0 24.4375 0.5625 25 1.25 25C1.9375 25 2.5 24.4375 2.5 23.75V16.25C2.5 15.5625 1.9375 15 1.25 15ZM36.25 15C35.5625 15 35 15.5625 35 16.25V23.75C35 24.4375 35.5625 25 36.25 25C36.9375 25 37.5 24.4375 37.5 23.75V16.25C37.5 15.5625 36.9375 15 36.25 15ZM6.25 7.5C5.5625 7.5 5 8.0625 5 8.75V31.25C5 31.9375 5.5625 32.5 6.25 32.5C6.9375 32.5 7.5 31.9375 7.5 31.25V8.75C7.5 8.0625 6.9375 7.5 6.25 7.5ZM11.25 12.5C10.5625 12.5 10 13.0625 10 13.75V26.25C10 26.9375 10.5625 27.5 11.25 27.5C11.9375 27.5 12.5 26.9375 12.5 26.25V13.75C12.5 13.0625 11.9375 12.5 11.25 12.5ZM16.25 17.5C15.5625 17.5 15 18.0625 15 18.75V21.25C15 21.9375 15.5625 22.5 16.25 22.5C16.9375 22.5 17.5 21.9375 17.5 21.25V18.75C17.5 18.0625 16.9375 17.5 16.25 17.5ZM21.25 12.5C20.5625 12.5 20 13.0625 20 13.75V26.25C20 26.9375 20.5625 27.5 21.25 27.5C21.9375 27.5 22.5 26.9375 22.5 26.25V13.75C22.5 13.0625 21.9375 12.5 21.25 12.5ZM26.25 2.5C25.5625 2.5 25 3.0625 25 3.75V36.25C25 36.9375 25.5625 37.5 26.25 37.5C26.9375 37.5 27.5 36.9375 27.5 36.25V3.75C27.5 3.0625 26.9375 2.5 26.25 2.5ZM31.25 7.5C30.5625 7.5 30 8.0625 30 8.75V31.25C30 31.9375 30.5625 32.5 31.25 32.5C31.9375 32.5 32.5 31.9375 32.5 31.25V8.75C32.5 8.0625 31.9375 7.5 31.25 7.5Z" fill="white"/>
</svg>
