<svg xmlns="http://www.w3.org/2000/svg" style="display: none;">
  <symbol id="logo" viewBox="0 0 183 35" >
    <g clip-path="url(#clip0_12_53)">
    <path d="M1.09375 13.125C0.492188 13.125 0 13.6172 0 14.2188V20.7812C0 21.3828 0.492188 21.875 1.09375 21.875C1.69531 21.875 2.1875 21.3828 2.1875 20.7812V14.2188C2.1875 13.6172 1.69531 13.125 1.09375 13.125ZM31.7188 13.125C31.1172 13.125 30.625 13.6172 30.625 14.2188V20.7812C30.625 21.3828 31.1172 21.875 31.7188 21.875C32.3203 21.875 32.8125 21.3828 32.8125 20.7812V14.2188C32.8125 13.6172 32.3203 13.125 31.7188 13.125ZM5.46875 6.5625C4.86719 6.5625 4.375 7.05469 4.375 7.65625V27.3438C4.375 27.9453 4.86719 28.4375 5.46875 28.4375C6.07031 28.4375 6.5625 27.9453 6.5625 27.3438V7.65625C6.5625 7.05469 6.07031 6.5625 5.46875 6.5625ZM9.84375 10.9375C9.24219 10.9375 8.75 11.4297 8.75 12.0312V22.9688C8.75 23.5703 9.24219 24.0625 9.84375 24.0625C10.4453 24.0625 10.9375 23.5703 10.9375 22.9688V12.0312C10.9375 11.4297 10.4453 10.9375 9.84375 10.9375ZM14.2188 15.3125C13.6172 15.3125 13.125 15.8047 13.125 16.4062V18.5938C13.125 19.1953 13.6172 19.6875 14.2188 19.6875C14.8203 19.6875 15.3125 19.1953 15.3125 18.5938V16.4062C15.3125 15.8047 14.8203 15.3125 14.2188 15.3125ZM18.5938 10.9375C17.9922 10.9375 17.5 11.4297 17.5 12.0312V22.9688C17.5 23.5703 17.9922 24.0625 18.5938 24.0625C19.1953 24.0625 19.6875 23.5703 19.6875 22.9688V12.0312C19.6875 11.4297 19.1953 10.9375 18.5938 10.9375ZM22.9688 2.1875C22.3672 2.1875 21.875 2.67969 21.875 3.28125V31.7188C21.875 32.3203 22.3672 32.8125 22.9688 32.8125C23.5703 32.8125 24.0625 32.3203 24.0625 31.7188V3.28125C24.0625 2.67969 23.5703 2.1875 22.9688 2.1875ZM27.3438 6.5625C26.7422 6.5625 26.25 7.05469 26.25 7.65625V27.3438C26.25 27.9453 26.7422 28.4375 27.3438 28.4375C27.9453 28.4375 28.4375 27.9453 28.4375 27.3438V7.65625C28.4375 7.05469 27.9453 6.5625 27.3438 6.5625Z" fill="white"/>
    <path d="M52.968 27.32C51.752 27.32 50.6427 27.032 49.64 26.456C48.6587 25.8587 47.88 25.0267 47.304 23.96C46.728 22.872 46.44 21.624 46.44 20.216C46.44 18.744 46.7387 17.4853 47.336 16.44C47.9547 15.3947 48.7867 14.5947 49.832 14.04C50.8773 13.4853 52.0507 13.208 53.352 13.208C54.3973 13.208 55.3893 13.432 56.328 13.88C57.288 14.328 58.0347 14.9467 58.568 15.736L58.44 16.792V2.232H61.384V27H58.408V23.704L58.728 24.536C58.1093 25.3467 57.3093 26.0187 56.328 26.552C55.3467 27.064 54.2267 27.32 52.968 27.32ZM53.896 24.792C54.6853 24.792 55.3893 24.6533 56.008 24.376C56.6267 24.0773 57.1387 23.672 57.544 23.16C57.9493 22.648 58.2373 22.04 58.408 21.336V18.84C58.2373 18.2 57.928 17.6453 57.48 17.176C57.0533 16.6853 56.5307 16.3013 55.912 16.024C55.3147 15.7253 54.6427 15.576 53.896 15.576C53.0853 15.576 52.3387 15.7787 51.656 16.184C50.9947 16.568 50.4613 17.1013 50.056 17.784C49.6507 18.4667 49.448 19.256 49.448 20.152C49.448 21.0267 49.6507 21.816 50.056 22.52C50.4613 23.2027 51.0053 23.7573 51.688 24.184C52.3707 24.5893 53.1067 24.792 53.896 24.792ZM69.2168 13.752L69.5048 17.592L69.3448 17.08C69.6861 16.2693 70.1768 15.5867 70.8168 15.032C71.4781 14.456 72.1608 14.0187 72.8648 13.72C73.5901 13.4 74.2194 13.24 74.7528 13.24L74.5928 16.184C73.5901 16.12 72.7048 16.312 71.9368 16.76C71.1901 17.208 70.5928 17.8053 70.1448 18.552C69.7181 19.2987 69.5048 20.0987 69.5048 20.952V27H66.5608V13.752H69.2168ZM83.7835 27.32C82.5462 27.32 81.4155 27.0533 80.3915 26.52C79.3888 25.9867 78.5888 25.208 77.9915 24.184C77.4155 23.1387 77.1275 21.8693 77.1275 20.376C77.1275 18.904 77.4368 17.6347 78.0555 16.568C78.6742 15.48 79.4955 14.648 80.5195 14.072C81.5648 13.496 82.7062 13.208 83.9435 13.208C85.1808 13.208 86.2262 13.496 87.0795 14.072C87.9328 14.6267 88.5835 15.288 89.0315 16.056L88.8395 16.568L89.1275 13.752H91.8795V27H88.9035V23.544L89.2235 24.312C89.1382 24.5253 88.9462 24.8027 88.6475 25.144C88.3702 25.464 87.9862 25.7947 87.4955 26.136C87.0262 26.4773 86.4822 26.7653 85.8635 27C85.2448 27.2133 84.5515 27.32 83.7835 27.32ZM84.5835 24.856C85.3302 24.856 86.0022 24.7173 86.5995 24.44C87.1968 24.1627 87.6875 23.7787 88.0715 23.288C88.4768 22.776 88.7542 22.168 88.9035 21.464V18.872C88.7328 18.232 88.4342 17.6773 88.0075 17.208C87.5808 16.7173 87.0688 16.344 86.4715 16.088C85.8742 15.8107 85.2128 15.672 84.4875 15.672C83.6982 15.672 82.9728 15.864 82.3115 16.248C81.6502 16.632 81.1168 17.1653 80.7115 17.848C80.3275 18.5307 80.1355 19.3307 80.1355 20.248C80.1355 21.1013 80.3382 21.88 80.7435 22.584C81.1488 23.288 81.6928 23.8427 82.3755 24.248C83.0582 24.6533 83.7942 24.856 84.5835 24.856ZM103.398 33.56C102.416 33.56 101.552 33.4427 100.806 33.208C100.059 32.9947 99.3762 32.6853 98.7575 32.28C98.1602 31.8747 97.5842 31.416 97.0295 30.904L98.7575 28.888C99.4615 29.5493 100.176 30.0613 100.902 30.424C101.627 30.7867 102.438 30.968 103.334 30.968C104.336 30.968 105.179 30.7973 105.862 30.456C106.566 30.136 107.099 29.6773 107.462 29.08C107.824 28.504 108.006 27.832 108.006 27.064L108.038 23.48L108.294 24.056C107.91 24.9733 107.216 25.752 106.214 26.392C105.211 27.0107 103.995 27.32 102.566 27.32C101.35 27.32 100.23 27.0107 99.2055 26.392C98.2028 25.7733 97.3922 24.9413 96.7735 23.896C96.1762 22.8293 95.8775 21.6347 95.8775 20.312C95.8775 18.9253 96.1975 17.7093 96.8375 16.664C97.4775 15.5973 98.3202 14.7547 99.3655 14.136C100.411 13.5173 101.552 13.208 102.79 13.208C103.963 13.208 105.03 13.4533 105.99 13.944C106.971 14.4133 107.686 15.0213 108.134 15.768L107.974 16.312L108.294 13.752H111.014V27.096C111.014 28.2907 110.704 29.3787 110.086 30.36C109.467 31.3413 108.592 32.12 107.462 32.696C106.331 33.272 104.976 33.56 103.398 33.56ZM98.8535 20.248C98.8535 21.1013 99.0562 21.88 99.4615 22.584C99.8668 23.288 100.411 23.8427 101.094 24.248C101.798 24.6533 102.576 24.856 103.43 24.856C104.219 24.856 104.923 24.7173 105.542 24.44C106.182 24.1413 106.715 23.7467 107.142 23.256C107.568 22.744 107.867 22.1573 108.038 21.496V18.872C107.846 18.232 107.526 17.6773 107.078 17.208C106.63 16.7173 106.096 16.344 105.478 16.088C104.859 15.8107 104.176 15.672 103.43 15.672C102.576 15.672 101.798 15.864 101.094 16.248C100.411 16.632 99.8668 17.176 99.4615 17.88C99.0562 18.5627 98.8535 19.352 98.8535 20.248ZM121.659 27.32C120.421 27.32 119.291 27.0533 118.266 26.52C117.264 25.9867 116.464 25.208 115.867 24.184C115.291 23.1387 115.003 21.8693 115.003 20.376C115.003 18.904 115.312 17.6347 115.931 16.568C116.549 15.48 117.371 14.648 118.395 14.072C119.44 13.496 120.581 13.208 121.819 13.208C123.056 13.208 124.101 13.496 124.955 14.072C125.808 14.6267 126.459 15.288 126.907 16.056L126.715 16.568L127.003 13.752H129.755V27H126.779V23.544L127.099 24.312C127.013 24.5253 126.821 24.8027 126.523 25.144C126.245 25.464 125.861 25.7947 125.371 26.136C124.901 26.4773 124.357 26.7653 123.739 27C123.12 27.2133 122.427 27.32 121.659 27.32ZM122.459 24.856C123.205 24.856 123.877 24.7173 124.475 24.44C125.072 24.1627 125.563 23.7787 125.947 23.288C126.352 22.776 126.629 22.168 126.779 21.464V18.872C126.608 18.232 126.309 17.6773 125.883 17.208C125.456 16.7173 124.944 16.344 124.347 16.088C123.749 15.8107 123.088 15.672 122.363 15.672C121.573 15.672 120.848 15.864 120.187 16.248C119.525 16.632 118.992 17.1653 118.587 17.848C118.203 18.5307 118.011 19.3307 118.011 20.248C118.011 21.1013 118.213 21.88 118.619 22.584C119.024 23.288 119.568 23.8427 120.251 24.248C120.933 24.6533 121.669 24.856 122.459 24.856ZM137.561 13.752L137.817 16.984L137.689 16.472C138.115 15.4907 138.809 14.712 139.769 14.136C140.729 13.5387 141.838 13.24 143.097 13.24C144.355 13.24 145.379 13.6133 146.169 14.36C146.979 15.0853 147.395 16.0347 147.417 17.208V27H144.409V18.264C144.387 17.5387 144.174 16.952 143.769 16.504C143.385 16.0347 142.777 15.8 141.945 15.8C141.177 15.8 140.483 16.0133 139.865 16.44C139.246 16.8667 138.755 17.4533 138.393 18.2C138.051 18.9467 137.881 19.8107 137.881 20.792V27H134.905V13.752H137.561ZM151.44 20.248C151.44 18.9253 151.749 17.7307 152.368 16.664C153.008 15.5973 153.883 14.7547 154.992 14.136C156.101 13.5173 157.36 13.208 158.768 13.208C160.219 13.208 161.488 13.5173 162.576 14.136C163.664 14.7547 164.507 15.5973 165.104 16.664C165.701 17.7307 166 18.9253 166 20.248C166 21.5707 165.701 22.776 165.104 23.864C164.507 24.9307 163.653 25.7733 162.544 26.392C161.456 27.0107 160.187 27.32 158.736 27.32C157.328 27.32 156.069 27.032 154.96 26.456C153.872 25.8587 153.008 25.0373 152.368 23.992C151.749 22.9253 151.44 21.6773 151.44 20.248ZM154.416 20.28C154.416 21.1333 154.608 21.912 154.992 22.616C155.376 23.2987 155.888 23.8427 156.528 24.248C157.189 24.6533 157.915 24.856 158.704 24.856C159.536 24.856 160.272 24.6533 160.912 24.248C161.573 23.8427 162.085 23.2987 162.448 22.616C162.811 21.912 162.992 21.1333 162.992 20.28C162.992 19.4267 162.811 18.6587 162.448 17.976C162.085 17.272 161.573 16.7173 160.912 16.312C160.272 15.8853 159.536 15.672 158.704 15.672C157.893 15.672 157.157 15.8853 156.496 16.312C155.856 16.7387 155.344 17.304 154.96 18.008C154.597 18.6907 154.416 19.448 154.416 20.28ZM174.999 27.384L167.639 13.752H171.159L176.151 24.28L174.327 24.216L178.903 13.752H182.231L175.159 27.384H174.999Z" fill="white"/>
    </g>
    <defs>
    <clipPath id="clip0_12_53">
    <rect width="183" height="35" fill="white"/>
    </clipPath>
    </defs>
  </symbol>
  <symbol id="speaker" fill="none" viewBox="0 0 20 20">
    <path d="M12.5 3.54162V16.455C12.5 17.3541 11.4383 17.8308 10.7666 17.2333L7.02329 13.905C6.90889 13.8034 6.76124 13.7474 6.60829 13.7475H3.54163C3.2954 13.7475 3.05158 13.699 2.82409 13.6047C2.59661 13.5105 2.38991 13.3724 2.2158 13.1983C2.04169 13.0242 1.90358 12.8175 1.80935 12.59C1.71512 12.3625 1.66663 12.1187 1.66663 11.8725V8.12412C1.66685 7.62698 1.86449 7.15028 2.2161 6.79883C2.5677 6.44738 3.04449 6.24995 3.54163 6.24995H6.60829C6.76135 6.24977 6.90901 6.19343 7.02329 6.09162L10.7658 2.76412C11.4383 2.16662 12.5 2.64328 12.5 3.54162ZM15.8266 4.91495C15.9598 4.81629 16.1267 4.77456 16.2906 4.79893C16.4546 4.82331 16.6021 4.91181 16.7008 5.04495C17.7636 6.47845 18.336 8.2163 18.3333 10.0008C18.3356 11.7851 17.7629 13.5226 16.7 14.9558C16.6002 15.0861 16.4533 15.172 16.2908 15.1949C16.1283 15.2178 15.9633 15.1759 15.8314 15.0782C15.6996 14.9805 15.6115 14.8348 15.5861 14.6727C15.5607 14.5106 15.6001 14.3449 15.6958 14.2116C16.5991 12.9937 17.0857 11.5171 17.0833 10.0008C17.0858 8.4842 16.5993 7.00722 15.6958 5.78912C15.6469 5.7231 15.6114 5.64808 15.5915 5.56836C15.5716 5.48863 15.5676 5.40576 15.5797 5.32448C15.5919 5.24321 15.62 5.16513 15.6623 5.09472C15.7047 5.0243 15.7605 4.96376 15.8266 4.91495ZM14.2858 6.97495C14.358 6.93581 14.4371 6.91127 14.5188 6.90274C14.6004 6.8942 14.683 6.90184 14.7617 6.92521C14.8404 6.94858 14.9137 6.98723 14.9775 7.03894C15.0412 7.09066 15.0942 7.15443 15.1333 7.22662C15.58 8.05162 15.8333 8.99745 15.8333 10.0008C15.8337 10.969 15.5932 11.9221 15.1333 12.7741C15.0942 12.8463 15.0413 12.9102 14.9776 12.9619C14.9138 13.0137 14.8405 13.0524 14.7618 13.0759C14.6831 13.0993 14.6006 13.1071 14.5189 13.0986C14.4372 13.0901 14.358 13.0657 14.2858 13.0266C14.2136 12.9875 14.1497 12.9346 14.098 12.8709C14.0462 12.8072 14.0075 12.7339 13.984 12.6552C13.9606 12.5765 13.9529 12.4939 13.9613 12.4122C13.9698 12.3306 13.9942 12.2513 14.0333 12.1791C14.3945 11.5099 14.5835 10.7613 14.5833 10.0008C14.5833 9.21079 14.3833 8.46912 14.0333 7.82162C13.9546 7.67584 13.9369 7.50478 13.9843 7.34602C14.0316 7.18726 14.1401 7.05379 14.2858 6.97495Z" fill="white"/>
  </symbol>
  <symbol id="target" viewBox="0 0 40 40" >
    <path  d="M20 3.33337C20.6256 3.33337 21.2423 3.36726 21.85 3.43504C22.0676 3.45912 22.2783 3.52581 22.4701 3.63131C22.6618 3.7368 22.831 3.87904 22.9678 4.0499C23.1046 4.22076 23.2064 4.4169 23.2674 4.62711C23.3284 4.83732 23.3474 5.05748 23.3234 5.27504C23.2993 5.4926 23.2326 5.70328 23.1271 5.89506C23.0216 6.08685 22.8794 6.25597 22.7085 6.39278C22.5377 6.5296 22.3415 6.63141 22.1313 6.69243C21.9211 6.75344 21.7009 6.77245 21.4834 6.74837C18.7368 6.44111 15.9626 6.99494 13.5445 8.33325C11.1264 9.67155 9.18396 11.7282 7.98582 14.2187C6.78767 16.7092 6.39304 19.5105 6.85653 22.2351C7.32001 24.9597 8.61869 27.4729 10.5729 29.4271C12.5272 31.3814 15.0404 32.6801 17.765 33.1436C20.4896 33.607 23.2909 33.2124 25.7814 32.0143C28.2719 30.8161 30.3285 28.8737 31.6668 26.4556C33.0051 24.0375 33.559 21.2633 33.2517 18.5167C33.2276 18.2991 33.2466 18.079 33.3077 17.8688C33.3687 17.6586 33.4705 17.4624 33.6073 17.2916C33.8836 16.9465 34.2857 16.7253 34.725 16.6767C35.1644 16.6281 35.6051 16.756 35.9502 17.0323C36.121 17.1691 36.2633 17.3382 36.3688 17.53C36.4743 17.7218 36.541 17.9325 36.565 18.15C36.6317 18.7578 36.6656 19.3745 36.6667 20C36.6667 29.205 29.205 36.6667 20 36.6667C10.795 36.6667 3.33337 29.205 3.33337 20C3.33337 10.795 10.795 3.33337 20 3.33337ZM19.9467 13.1284C20.0565 13.5562 19.992 14.0102 19.7673 14.3906C19.5426 14.7709 19.1761 15.0464 18.7484 15.1567C17.5732 15.4646 16.5501 16.1895 15.8701 17.1962C15.1901 18.203 14.8996 19.4227 15.0529 20.6279C15.2061 21.833 15.7926 22.9413 16.7029 23.7458C17.6132 24.5503 18.7852 24.9961 20 25C21.1089 25.0005 22.1864 24.6324 23.0632 23.9535C23.9399 23.2747 24.5662 22.3237 24.8434 21.25C24.9615 20.8306 25.2392 20.4742 25.617 20.257C25.9947 20.0398 26.4425 19.9792 26.8644 20.0882C27.2863 20.1972 27.6487 20.467 27.8741 20.8399C28.0994 21.2129 28.1698 21.6592 28.07 22.0834C27.5588 24.0433 26.3514 25.75 24.6736 26.8847C22.9958 28.0194 20.9623 28.5044 18.953 28.2492C16.9436 27.994 15.0959 27.016 13.7551 25.4979C12.4142 23.9798 11.6718 22.0255 11.6667 20C11.6664 18.1524 12.2802 16.357 13.4116 14.8962C14.5429 13.4353 16.1277 12.392 17.9167 11.93C18.1287 11.8754 18.3493 11.8631 18.5661 11.8937C18.7828 11.9244 18.9914 11.9974 19.1799 12.1087C19.3684 12.22 19.5332 12.3673 19.6647 12.5423C19.7963 12.7172 19.8921 12.9164 19.9467 13.1284ZM30.84 3.54504C31.1443 3.67117 31.4043 3.8846 31.5873 4.15839C31.7703 4.43218 31.8681 4.75405 31.8684 5.08337V8.13337H34.9167C35.2463 8.13344 35.5685 8.23123 35.8425 8.41437C36.1165 8.59751 36.3301 8.85778 36.4562 9.16228C36.5823 9.46678 36.6153 9.80184 36.551 10.1251C36.4867 10.4483 36.3281 10.7453 36.095 10.9784L30.2 16.8667C29.8876 17.1793 29.4637 17.3549 29.0217 17.355H25L21.9534 20.4034C21.6406 20.7161 21.2165 20.8918 20.7742 20.8918C20.3319 20.8918 19.9078 20.7161 19.595 20.4034C19.2823 20.0906 19.1066 19.6665 19.1066 19.2242C19.1066 18.7819 19.2823 18.3578 19.595 18.045L22.6434 15V10.9767C22.6435 10.5347 22.8191 10.1109 23.1317 9.79837L29.0234 3.90504C29.2564 3.67182 29.5535 3.51297 29.8768 3.44859C30.2002 3.38421 30.5354 3.4172 30.84 3.54337M28.535 9.10504L25.9767 11.6667V14.0234H28.3334L30.8934 11.465H30.2017C29.7597 11.465 29.3358 11.2894 29.0232 10.9769C28.7106 10.6643 28.535 10.2404 28.535 9.79837V9.10504Z"/>
  </symbol>
  <symbol id="speedometer" viewBox="0 0 40 40">
    <path d="M17.4167 25.8333C18.0834 26.5 18.9445 26.8266 20 26.8133C21.0556 26.8 21.8334 26.4177 22.3334 25.6666L29.375 15.125C29.625 14.7361 29.5906 14.3816 29.2717 14.0616C28.9528 13.7416 28.5984 13.7072 28.2084 13.9583L17.6667 21C16.9167 21.5 16.5212 22.2638 16.48 23.2916C16.4389 24.3194 16.7512 25.1666 17.4167 25.8333ZM20 6.66663C21 6.66663 21.9862 6.74996 22.9584 6.91663C23.9306 7.08329 24.875 7.34718 25.7917 7.70829C26.2362 7.87496 26.7084 8.18774 27.2084 8.64663C27.7084 9.10552 27.8473 9.54274 27.625 9.95829C27.4028 10.3738 26.9028 10.6516 26.125 10.7916C25.3473 10.9316 24.7223 10.9177 24.25 10.75C23.5556 10.5 22.8545 10.3127 22.1467 10.1883C21.4389 10.0638 20.7234 10.0011 20 9.99996C16.3056 9.99996 13.1595 11.2988 10.5617 13.8966C7.96393 16.4944 6.6656 19.64 6.66671 23.3333C6.66671 24.5 6.82671 25.6527 7.14671 26.7916C7.46671 27.9305 7.91782 29 8.50004 30H31.5C32.1389 28.9444 32.6045 27.8472 32.8967 26.7083C33.1889 25.5694 33.3345 24.3888 33.3334 23.1666C33.3334 22.4444 33.2706 21.7361 33.145 21.0416C33.0195 20.3472 32.8323 19.6666 32.5834 19C32.4167 18.5277 32.3889 18.0694 32.5 17.625C32.6112 17.1805 32.8612 16.8055 33.25 16.5C33.6112 16.2222 34.0073 16.1388 34.4384 16.25C34.8695 16.3611 35.1678 16.6111 35.3334 17C35.75 17.9722 36.0695 18.9655 36.2917 19.98C36.5139 20.9944 36.6389 22.0288 36.6667 23.0833C36.6945 24.6666 36.5139 26.1805 36.125 27.625C35.7362 29.0694 35.1667 30.4444 34.4167 31.75C34.1112 32.25 33.6945 32.6388 33.1667 32.9166C32.6389 33.1944 32.0834 33.3333 31.5 33.3333H8.50004C7.91671 33.3333 7.36115 33.1944 6.83337 32.9166C6.3056 32.6388 5.88893 32.25 5.58337 31.75C4.86115 30.5 4.3056 29.1738 3.91671 27.7716C3.52782 26.3694 3.33337 24.89 3.33337 23.3333C3.33337 21.0277 3.77115 18.8683 4.64671 16.855C5.52226 14.8416 6.71671 13.0777 8.23004 11.5633C9.74337 10.0488 11.5139 8.8544 13.5417 7.97996C15.5695 7.10552 17.7223 6.66774 20 6.66663Z" />
  </symbol>
  <symbol id="handshake" viewBox="0 0 40 40">
    <path d="M36.1834 14.5167C38.2667 12.4334 37.3167 10 36.1834 8.81671L31.1834 3.81671C29.0834 1.73338 26.6667 2.68338 25.4834 3.81671L22.65 6.66671H18.3334C15.1667 6.66671 13.3334 8.33338 12.4 10.25L5.00004 17.65V24.3167L3.81671 25.4834C1.73338 27.5834 2.68338 30 3.81671 31.1834L8.81671 36.1834C9.71671 37.0834 10.6834 37.4167 11.6 37.4167C12.7834 37.4167 13.8667 36.8334 14.5167 36.1834L19.0167 31.6667H25C27.8334 31.6667 29.2667 29.9 29.7834 28.1667C31.6667 27.6667 32.7 26.2334 33.1167 24.8334C35.7 24.1667 36.6667 21.7167 36.6667 20V15H35.6834L36.1834 14.5167ZM33.3334 20C33.3334 20.75 33.0167 21.6667 31.6667 21.6667H30V23.3334C30 24.0834 29.6834 25 28.3334 25H26.6667V26.6667C26.6667 27.4167 26.35 28.3334 25 28.3334H17.65L12.1834 33.8C11.6667 34.2834 11.3667 34 11.1834 33.8167L6.20004 28.85C5.71671 28.3334 6.00004 28.0334 6.18338 27.85L8.33338 25.6834V19.0167L11.6667 15.6834V18.3334C11.6667 20.35 13 23.3334 16.6667 23.3334C20.3334 23.3334 21.6667 20.35 21.6667 18.3334H33.3334V20ZM33.8167 12.15L30.9834 15H18.3334V18.3334C18.3334 19.0834 18.0167 20 16.6667 20C15.3167 20 15 19.0834 15 18.3334V13.3334C15 12.5667 15.2834 10 18.3334 10H24.0167L27.8167 6.20004C28.3334 5.71671 28.6334 6.00004 28.8167 6.18338L33.8 11.15C34.2834 11.6667 34 11.9667 33.8167 12.15Z"/>
  </symbol>
  <symbol id="brain" viewBox="0 0 40 40">
    <path d="M33.1067 14.1084C33.3413 13.2853 33.3921 12.4208 33.2556 11.5759C33.1192 10.731 32.7987 9.92643 32.317 9.21906C31.8352 8.5117 31.2039 7.91883 30.4678 7.48238C29.7316 7.04594 28.9085 6.77659 28.0567 6.69337C27.7149 5.71273 27.0767 4.86259 26.2305 4.26062C25.3843 3.65865 24.3719 3.33461 23.3334 3.33337C22.0993 3.33755 20.9111 3.80098 20 4.63337C19.089 3.80098 17.9007 3.33755 16.6667 3.33337C14.4984 3.33337 12.65 4.71837 11.9584 6.69171C11.1051 6.77284 10.2801 7.04074 9.54198 7.47642C8.80384 7.9121 8.17062 8.50487 7.68724 9.21269C7.20385 9.92051 6.88215 10.726 6.74496 11.5721C6.60776 12.4182 6.65843 13.2841 6.89337 14.1084C5.82366 14.6779 4.92797 15.5262 4.30123 16.5635C3.6745 17.6007 3.34006 18.7882 3.33337 20C3.33337 21.7917 4.04671 23.4767 5.28671 24.72C5.09539 25.3512 4.99878 26.0072 5.00004 26.6667C5.00004 29.9284 7.35337 32.65 10.51 33.2234C10.9743 34.2469 11.7228 35.1156 12.6665 35.726C13.6102 36.3365 14.7094 36.663 15.8334 36.6667C17.465 36.6667 18.94 35.9884 20 34.9017C20.5408 35.4601 21.1884 35.9041 21.9041 36.2073C22.6199 36.5105 23.3894 36.6667 24.1667 36.6667C25.2889 36.6646 26.3867 36.3398 27.3294 35.7311C28.2721 35.1223 29.0198 34.2553 29.4834 33.2334C30.4133 33.0694 31.2979 32.7101 32.0787 32.1791C32.8595 31.6481 33.5188 30.9575 34.0131 30.153C34.5074 29.3484 34.8254 28.4481 34.9461 27.5116C35.0668 26.5751 34.9875 25.6236 34.7134 24.72C35.3333 24.1003 35.8249 23.3645 36.16 22.5545C36.4952 21.7446 36.6674 20.8766 36.6667 20C36.66 18.7882 36.3256 17.6007 35.6988 16.5635C35.0721 15.5262 34.1764 14.6779 33.1067 14.1084ZM15.8334 33.3334C14.6484 33.3334 13.6167 32.4934 13.3834 31.3367L13.03 30H11.6667C9.82837 30 8.33337 28.505 8.33337 26.6667C8.33337 26.08 8.47504 25.53 8.75504 25.0317L9.51504 23.6717L8.20837 22.8217C7.73645 22.5173 7.34818 22.0996 7.07892 21.6068C6.80965 21.114 6.66795 20.5616 6.66671 20C6.66671 18.3717 7.87171 16.96 9.47004 16.7134L12.2917 16.28L10.5267 14.0367C10.2124 13.6315 10.0301 13.1395 10.0045 12.6273C9.97891 12.1151 10.1112 11.6074 10.3836 11.1729C10.656 10.7384 11.0552 10.398 11.5273 10.1978C11.9994 9.99752 12.5217 9.94712 13.0234 10.0534L15 10.345V8.33337C15 7.89135 15.1756 7.46742 15.4882 7.15486C15.8008 6.8423 16.2247 6.66671 16.6667 6.66671C17.1087 6.66671 17.5327 6.8423 17.8452 7.15486C18.1578 7.46742 18.3334 7.89135 18.3334 8.33337V30.8334C18.3334 32.2117 17.2117 33.3334 15.8334 33.3334ZM31.7917 22.82L30.485 23.67L31.245 25.03C31.525 25.5323 31.6656 26.0778 31.6667 26.6667C31.6667 28.505 30.1717 30 28.25 30H26.8867L26.6167 31.3367C26.5008 31.9008 26.1937 32.4075 25.7473 32.7713C25.3009 33.1351 24.7426 33.3336 24.1667 33.3334C22.7884 33.3334 21.6667 32.2117 21.6667 30.8334V8.33337C21.6667 7.41337 22.4134 6.66671 23.3334 6.66671C24.2534 6.66671 25 7.41337 25 8.41671V10.4284L26.9767 10.0534C27.4784 9.94712 28.0006 9.99752 28.4728 10.1978C28.9449 10.398 29.3441 10.7384 29.6165 11.1729C29.8888 11.6074 30.0212 12.1151 29.9956 12.6273C29.97 13.1395 29.7877 13.6315 29.4734 14.0367L27.7084 16.2817L30.53 16.715C31.3111 16.8408 32.022 17.2404 32.5356 17.8422C33.0492 18.444 33.332 19.2089 33.3334 20C33.3334 21.1384 32.7567 22.1917 31.7917 22.82Z" />
  </symbol>
  <symbol id="arrow" viewBox="0 0 13 13">
    <path d="M1.11672 3.31957C0.783314 3.69648 0.783314 4.30765 1.11672 4.68456L5.29362 9.40194C5.9606 10.1552 7.04132 10.1549 7.70796 9.40127L11.8833 4.68109C12.2167 4.30418 12.2167 3.69301 11.8833 3.3161C11.5498 2.93909 11.0093 2.93909 10.6758 3.3161L7.1022 7.35605C6.76871 7.73297 6.22818 7.73297 5.89477 7.35605L2.32414 3.31957C1.99074 2.94266 1.45012 2.94266 1.11672 3.31957Z" />
  </symbol>
  <symbol id="drum" viewBox="0 0 30 30">
    <path d="M2.5 2.5L12.5 12.5M27.5 2.5L17.5 12.5" fill="none" stroke="currentColor" stroke-width="2" stroke-linecap="round" stroke-linejoin="round" />
    <path d="M15 17.5C21.9036 17.5 27.5 14.7018 27.5 11.25C27.5 7.79822 21.9036 5 15 5C8.09644 5 2.5 7.79822 2.5 11.25C2.5 14.7018 8.09644 17.5 15 17.5Z" fill="none" stroke="currentColor" stroke-width="2" stroke-linecap="round" stroke-linejoin="round"/>
    <path d="M8.75 16.75V26.625M15 17.5V27.5M15 27.5C11.6848 27.5 8.50537 26.8415 6.16117 25.6694C3.81696 24.4973 2.5 22.9076 2.5 21.25V11.25M15 27.5C18.3152 27.5 21.4946 26.8415 23.8388 25.6694C26.183 24.4973 27.5 22.9076 27.5 21.25V11.25M21.25 16.75V26.625" fill="none" stroke="currentColor" stroke-width="2" stroke-linecap="round" stroke-linejoin="round"/>
  </symbol>
  <symbol id="fader"  viewBox="0 0 24 24">
    <path d="M7.2 1.59998C7.38443 1.59994 7.5632 1.66362 7.70607 1.78025C7.84893 1.89687 7.94712 2.05928 7.984 2.23998L8 2.39998V11.2C7.99893 11.2266 7.99627 11.2528 7.992 11.2784C8.89577 11.4628 9.70808 11.9538 10.2915 12.6682C10.8749 13.3827 11.1935 14.2768 11.1935 15.1992C11.1935 16.1216 10.8749 17.0156 10.2915 17.7301C9.70808 18.4446 8.89577 18.9356 7.992 19.12L8 19.2V21.6L7.984 21.76C7.94728 21.9408 7.84916 22.1034 7.70628 22.2202C7.5634 22.337 7.38454 22.4008 7.2 22.4008C7.01546 22.4008 6.8366 22.337 6.69372 22.2202C6.55084 22.1034 6.45272 21.9408 6.416 21.76L6.4 21.6V19.2C6.4 19.1733 6.40213 19.1466 6.4064 19.12C5.50131 18.9371 4.68734 18.4468 4.10262 17.7321C3.5179 17.0175 3.19844 16.1226 3.19844 15.1992C3.19844 14.2758 3.5179 13.3809 4.10262 12.6662C4.68734 11.9516 5.50131 11.4612 6.4064 11.2784L6.4 11.2V2.39998C6.4 2.1878 6.48429 1.98432 6.63432 1.83429C6.78434 1.68426 6.98783 1.59998 7.2 1.59998ZM16.8 1.59998C16.9844 1.59994 17.1632 1.66362 17.3061 1.78025C17.4489 1.89687 17.5471 2.05928 17.584 2.23998L17.6 2.39998V4.79998L17.592 4.87838C18.4958 5.0628 19.3081 5.55378 19.8915 6.26825C20.4749 6.98271 20.7935 7.87678 20.7935 8.79917C20.7935 9.72157 20.4749 10.6156 19.8915 11.3301C19.3081 12.0446 18.4958 12.5356 17.592 12.72L17.6 12.8V21.6C17.6002 21.7984 17.5267 21.9898 17.3937 22.137C17.2607 22.2842 17.0778 22.3768 16.8804 22.3967C16.683 22.4167 16.4853 22.3625 16.3255 22.2449C16.1658 22.1272 16.0555 21.9544 16.016 21.76L16 21.6V12.8C16 12.7733 16.0021 12.7466 16.0064 12.72C15.1013 12.5371 14.2873 12.0468 13.7026 11.3321C13.1179 10.6175 12.7984 9.72255 12.7984 8.79917C12.7984 7.8758 13.1179 6.98086 13.7026 6.26621C14.2873 5.55156 15.1013 5.06121 16.0064 4.87838L16 4.79998V2.39998C16 2.1878 16.0843 1.98432 16.2343 1.83429C16.3843 1.68426 16.5878 1.59998 16.8 1.59998ZM7.2 12.8C6.56348 12.8 5.95303 13.0528 5.50294 13.5029C5.05286 13.953 4.8 14.5635 4.8 15.2C4.8 15.8365 5.05286 16.4469 5.50294 16.897C5.95303 17.3471 6.56348 17.6 7.2 17.6C7.83652 17.6 8.44697 17.3471 8.89706 16.897C9.34715 16.4469 9.6 15.8365 9.6 15.2C9.6 14.5635 9.34715 13.953 8.89706 13.5029C8.44697 13.0528 7.83652 12.8 7.2 12.8ZM16.8 6.39998C16.4848 6.39998 16.1727 6.46205 15.8816 6.58266C15.5904 6.70328 15.3258 6.88006 15.1029 7.10292C14.8801 7.32578 14.7033 7.59035 14.5827 7.88154C14.4621 8.17272 14.4 8.4848 14.4 8.79998C14.4 9.11515 14.4621 9.42723 14.5827 9.71842C14.7033 10.0096 14.8801 10.2742 15.1029 10.497C15.3258 10.7199 15.5904 10.8967 15.8816 11.0173C16.1727 11.1379 16.4848 11.2 16.8 11.2C17.4365 11.2 18.047 10.9471 18.4971 10.497C18.9471 10.0469 19.2 9.43649 19.2 8.79998C19.2 8.16346 18.9471 7.55301 18.4971 7.10292C18.047 6.65283 17.4365 6.39998 16.8 6.39998Z" stroke="white" stroke-width="0.7"/>
  </symbol>
  <symbol id="megaphone"  viewBox="0 0 29 29">
    <path d="M10.875 20.5417C10.875 20.5417 19.3333 21.75 22.9583 25.375H24.1667C24.4871 25.375 24.7945 25.2477 25.0211 25.0211C25.2477 24.7945 25.375 24.4871 25.375 24.1667V16.8405C25.8943 16.707 26.3544 16.4046 26.683 15.9809C27.0116 15.5571 27.1899 15.0362 27.1899 14.5C27.1899 13.9638 27.0116 13.4429 26.683 13.0191C26.3544 12.5954 25.8943 12.293 25.375 12.1595V4.83333C25.375 4.51286 25.2477 4.20552 25.0211 3.97891C24.7945 3.75231 24.4871 3.625 24.1667 3.625H22.9583C19.3333 7.25 10.875 8.45833 10.875 8.45833H6.04167C5.40073 8.45833 4.78604 8.71295 4.33283 9.16616C3.87961 9.61937 3.625 10.2341 3.625 10.875V18.125C3.625 18.7659 3.87961 19.3806 4.33283 19.8338C4.78604 20.2871 5.40073 20.5417 6.04167 20.5417H7.25L8.45833 26.5833H10.875V20.5417ZM13.2917 10.4654C14.117 10.289 15.1368 10.0425 16.24 9.71983C18.2676 9.12292 20.8437 8.18404 22.9583 6.73525V22.2635C20.8437 20.816 18.2664 19.8771 16.24 19.2802C15.2667 18.9958 14.2833 18.7475 13.2917 18.5358V10.4654ZM6.04167 10.875H10.875V18.125H6.04167V10.875Z" />
  </symbol>
  <symbol id="melody"  viewBox="0 0 25 25">
    <path d="M21.8749 3.125V16.1458C21.8749 17.1128 21.4908 18.0401 20.8071 18.7238C20.1234 19.4076 19.196 19.7917 18.2291 19.7917C17.2622 19.7917 16.3348 19.4076 15.6511 18.7238C14.9674 18.0401 14.5833 17.1128 14.5833 16.1458C14.5833 15.1789 14.9674 14.2516 15.6511 13.5678C16.3348 12.8841 17.2622 12.5 18.2291 12.5C18.7916 12.5 19.3228 12.625 19.7916 12.8542V6.73958L9.37492 8.95833V18.2292C9.37492 19.1961 8.99081 20.1234 8.30708 20.8072C7.62335 21.4909 6.69602 21.875 5.72909 21.875C4.76215 21.875 3.83482 21.4909 3.15109 20.8072C2.46737 20.1234 2.08325 19.1961 2.08325 18.2292C2.08325 17.2622 2.46737 16.3349 3.15109 15.6512C3.83482 14.9674 4.76215 14.5833 5.72909 14.5833C6.29159 14.5833 6.82284 14.7083 7.29159 14.9375V6.25L21.8749 3.125Z" />
  </symbol>
  <symbol id="mic"  viewBox="0 0 29 29">
    <path d="M14.5 18C13.4931 18 12.6372 17.6476 11.9323 16.9427C11.2275 16.2378 10.8751 15.3819 10.8751 14.375V7.125C10.8751 6.11806 11.2275 5.26215 11.9323 4.55729C12.6372 3.85243 13.4931 3.5 14.5 3.5C15.507 3.5 16.3629 3.85243 17.0678 4.55729C17.7726 5.26215 18.125 6.11806 18.125 7.125V14.375C18.125 15.3819 17.7726 16.2378 17.0678 16.9427C16.3629 17.6476 15.507 18 14.5 18ZM13.2917 25.25V22.7427C11.4389 22.4809 9.8532 21.6955 8.53451 20.3865C7.21581 19.0774 6.41509 17.4865 6.13234 15.6135C6.09206 15.2712 6.18269 14.9792 6.40422 14.7375C6.62574 14.4958 6.90769 14.375 7.25005 14.375C7.59241 14.375 7.87959 14.491 8.11159 14.723C8.34359 14.955 8.49947 15.2418 8.57922 15.5833C8.86116 16.9931 9.56119 18.151 10.6793 19.0573C11.7974 19.9635 13.071 20.4167 14.5 20.4167C15.95 20.4167 17.2289 19.9587 18.3365 19.0428C19.4441 18.1269 20.1389 16.9737 20.4209 15.5833C20.5014 15.241 20.6577 14.9542 20.8897 14.723C21.1217 14.4918 21.4085 14.3758 21.75 14.375C22.0916 14.3742 22.3736 14.495 22.5959 14.7375C22.8182 14.98 22.9088 15.272 22.8678 15.6135C22.5858 17.4462 21.7903 19.0271 20.4813 20.3563C19.1723 21.6854 17.5813 22.4809 15.7084 22.7427V25.25C15.7084 25.5924 15.5924 25.8795 15.3604 26.1115C15.1284 26.3435 14.8416 26.4591 14.5 26.4583C14.1585 26.4575 13.8717 26.3415 13.6397 26.1103C13.4077 25.8791 13.2917 25.5924 13.2917 25.25ZM14.5 15.5833C14.8424 15.5833 15.1296 15.4673 15.3616 15.2353C15.5936 15.0033 15.7092 14.7166 15.7084 14.375V7.125C15.7084 6.78264 15.5924 6.49586 15.3604 6.26467C15.1284 6.03347 14.8416 5.91747 14.5 5.91667C14.1585 5.91586 13.8717 6.03186 13.6397 6.26467C13.4077 6.49747 13.2917 6.78425 13.2917 7.125V14.375C13.2917 14.7174 13.4077 15.0045 13.6397 15.2365C13.8717 15.4685 14.1585 15.5841 14.5 15.5833Z" />
  </symbol>
  <symbol id="pause" viewBox="0 0 40 40">
    <path d="M25.5557 39.4444V0.555542H36.6668V39.4444H25.5557ZM3.3335 39.4444V0.555542H14.4446V39.4444H3.3335Z" fill="white"/>
  </symbol>

  <symbol id="person"  viewBox="0 0 29 29">
    <path d="M14.5 14.5C13.1708 14.5 12.033 14.0267 11.0865 13.0802C10.1399 12.1337 9.66666 10.9958 9.66666 9.66665C9.66666 8.33748 10.1399 7.19963 11.0865 6.2531C12.033 5.30658 13.1708 4.83331 14.5 4.83331C15.8292 4.83331 16.967 5.30658 17.9135 6.2531C18.8601 7.19963 19.3333 8.33748 19.3333 9.66665C19.3333 10.9958 18.8601 12.1337 17.9135 13.0802C16.967 14.0267 15.8292 14.5 14.5 14.5ZM4.83333 24.1666V20.7833C4.83333 20.0986 5.00975 19.4695 5.36258 18.8959C5.71541 18.3223 6.18344 17.8841 6.76666 17.5812C8.01527 16.9569 9.28402 16.4889 10.5729 16.1771C11.8618 15.8654 13.1708 15.7091 14.5 15.7083C15.8292 15.7075 17.1382 15.8638 18.4271 16.1771C19.716 16.4905 20.9847 16.9585 22.2333 17.5812C22.8174 17.8833 23.2858 18.3215 23.6386 18.8959C23.9915 19.4703 24.1675 20.0994 24.1667 20.7833V24.1666H4.83333ZM7.24999 21.75H21.75V20.7833C21.75 20.5618 21.6948 20.3604 21.5845 20.1791C21.4741 19.9979 21.3279 19.8569 21.1458 19.7562C20.0583 19.2125 18.9608 18.8049 17.8531 18.5334C16.7455 18.2619 15.6278 18.1258 14.5 18.125C13.3722 18.1242 12.2545 18.2603 11.1469 18.5334C10.0392 18.8065 8.94166 19.2141 7.85416 19.7562C7.67291 19.8569 7.5267 19.9979 7.41554 20.1791C7.30437 20.3604 7.24919 20.5618 7.24999 20.7833V21.75ZM14.5 12.0833C15.1646 12.0833 15.7337 11.8469 16.2074 11.374C16.681 10.9012 16.9175 10.332 16.9167 9.66665C16.9159 9.00126 16.6794 8.43254 16.2074 7.96048C15.7353 7.48842 15.1662 7.25159 14.5 7.24998C13.8338 7.24837 13.2651 7.4852 12.7938 7.96048C12.3226 8.43576 12.0857 9.00448 12.0833 9.66665C12.0809 10.3288 12.3177 10.8979 12.7938 11.374C13.2699 11.8501 13.8386 12.0865 14.5 12.0833Z" />
  </symbol>
  <symbol id="play"  viewBox="0 0 40 40">
    <path d="M5.26312 1.69336L35.0114 20L5.26312 38.3066V1.69336Z" stroke-width="2" stroke-linecap="round" stroke-linejoin="round"/>
  </symbol>
  <symbol id="scroll"  viewBox="0 0 50 50">
    <path d="M23.8958 33.9125C24.1888 34.2051 24.5859 34.3695 25 34.3695C25.414 34.3695 25.8112 34.2051 26.1041 33.9125L30.7916 29.2271C31.0676 28.9309 31.2179 28.5391 31.2108 28.1343C31.2036 27.7295 31.0396 27.3433 30.7534 27.057C30.4671 26.7708 30.0809 26.6068 29.6761 26.5996C29.2713 26.5925 28.8795 26.7427 28.5833 27.0187L25 30.5958L21.4166 27.0146C21.2724 26.8654 21.1 26.7465 20.9093 26.6647C20.7186 26.5829 20.5136 26.5399 20.3061 26.5382C20.0986 26.5365 19.8929 26.5761 19.7009 26.6547C19.5089 26.7334 19.3345 26.8495 19.1879 26.9963C19.0413 27.1431 18.9253 27.3176 18.8468 27.5096C18.7684 27.7017 18.7289 27.9075 18.7308 28.1149C18.7327 28.3224 18.7759 28.5274 18.8579 28.718C18.9399 28.9086 19.059 29.0809 19.2083 29.225L23.8958 33.9125ZM25 18.8646C24.5579 18.8646 24.134 18.689 23.8215 18.3764C23.5089 18.0639 23.3333 17.6399 23.3333 17.1979C23.3333 16.7559 23.5089 16.332 23.8215 16.0194C24.134 15.7068 24.5579 15.5312 25 15.5312C25.442 15.5312 25.8659 15.7068 26.1785 16.0194C26.491 16.332 26.6666 16.7559 26.6666 17.1979C26.6666 17.6399 26.491 18.0639 26.1785 18.3764C25.8659 18.689 25.442 18.8646 25 18.8646ZM23.3333 23.0646C23.3333 23.2835 23.3764 23.5002 23.4602 23.7024C23.5439 23.9046 23.6667 24.0883 23.8215 24.2431C23.9762 24.3979 24.16 24.5206 24.3622 24.6044C24.5644 24.6881 24.7811 24.7313 25 24.7313C25.2188 24.7313 25.4356 24.6881 25.6378 24.6044C25.84 24.5206 26.0237 24.3979 26.1785 24.2431C26.3333 24.0883 26.456 23.9046 26.5398 23.7024C26.6235 23.5002 26.6666 23.2835 26.6666 23.0646C26.6666 22.6226 26.491 22.1986 26.1785 21.8861C25.8659 21.5735 25.442 21.3979 25 21.3979C24.5579 21.3979 24.134 21.5735 23.8215 21.8861C23.5089 22.1986 23.3333 22.6226 23.3333 23.0646Z"/>
    <path fill-rule="evenodd" clip-rule="evenodd" d="M25 4.16876C20.856 4.16876 16.8817 5.81496 13.9515 8.74522C11.0212 11.6755 9.375 15.6498 9.375 19.7938V30.2104C9.375 34.3544 11.0212 38.3287 13.9515 41.259C16.8817 44.1892 20.856 45.8354 25 45.8354C29.144 45.8354 33.1183 44.1892 36.0485 41.259C38.9788 38.3287 40.625 34.3544 40.625 30.2104V19.7938C40.625 15.6498 38.9788 11.6755 36.0485 8.74522C33.1183 5.81496 29.144 4.16876 25 4.16876ZM12.5 19.7938C12.5 16.4786 13.817 13.2991 16.1612 10.9549C18.5054 8.61072 21.6848 7.29376 25 7.29376C28.3152 7.29376 31.4946 8.61072 33.8388 10.9549C36.183 13.2991 37.5 16.4786 37.5 19.7938V30.2104C37.5 33.5256 36.183 36.7051 33.8388 39.0493C31.4946 41.3935 28.3152 42.7104 25 42.7104C21.6848 42.7104 18.5054 41.3935 16.1612 39.0493C13.817 36.7051 12.5 33.5256 12.5 30.2104V19.7938Z" />
  </symbol>
  <symbol id="telegram" viewBox="0 0 24 24">
    <path d="M12 2C6.48 2 2 6.48 2 12C2 17.52 6.48 22 12 22C17.52 22 22 17.52 22 12C22 6.48 17.52 2 12 2ZM16.64 8.8C16.49 10.38 15.84 14.22 15.51 15.99C15.37 16.74 15.09 16.99 14.83 17.02C14.25 17.07 13.81 16.64 13.25 16.27C12.37 15.69 11.87 15.33 11.02 14.77C10.03 14.12 10.67 13.76 11.24 13.18C11.39 13.03 13.95 10.7 14 10.49C14.0069 10.4582 14.006 10.4252 13.9973 10.3938C13.9886 10.3624 13.9724 10.3337 13.95 10.31C13.89 10.26 13.81 10.28 13.74 10.29C13.65 10.31 12.25 11.24 9.52 13.08C9.12 13.35 8.76 13.49 8.44 13.48C8.08 13.47 7.4 13.28 6.89 13.11C6.26 12.91 5.77 12.8 5.81 12.45C5.83 12.27 6.08 12.09 6.55 11.9C9.47 10.63 11.41 9.79 12.38 9.39C15.16 8.23 15.73 8.03 16.11 8.03C16.19 8.03 16.38 8.05 16.5 8.15C16.6 8.23 16.63 8.34 16.64 8.42C16.63 8.48 16.65 8.66 16.64 8.8Z" />
  </symbol>
  <symbol id="tiktok" viewBox="0 0 24 24">
    <path d="M16.6 5.82C15.9166 5.03953 15.5399 4.0374 15.54 3H12.45V15.4C12.4267 16.0712 12.1435 16.7071 11.6603 17.1735C11.1771 17.6399 10.5316 17.9004 9.86 17.9C8.44 17.9 7.26 16.74 7.26 15.3C7.26 13.58 8.92 12.29 10.63 12.82V9.66C7.18 9.2 4.16 11.88 4.16 15.3C4.16 18.63 6.92 21 9.85 21C12.99 21 15.54 18.45 15.54 15.3V9.01C16.793 9.90985 18.2974 10.3926 19.84 10.39V7.3C19.84 7.3 17.96 7.39 16.6 5.82Z" />
  </symbol>
  <symbol id="youtube" viewBox="0 0 24 24">
    <path 
      fill-rule="evenodd"
      clip-rule="evenodd"
      d="M12 4C12.855 4 13.732 4.022 14.582 4.058L15.586 4.106L16.547 4.163L17.447 4.224L18.269 4.288C19.1612 4.35589 20.0008 4.73643 20.64 5.3626C21.2791 5.98877 21.6768 6.8204 21.763 7.711L21.803 8.136L21.878 9.046C21.948 9.989 22 11.017 22 12C22 12.983 21.948 14.011 21.878 14.954L21.803 15.864L21.763 16.289C21.6768 17.1798 21.2789 18.0115 20.6396 18.6377C20.0002 19.2639 19.1604 19.6443 18.268 19.712L17.448 19.775L16.548 19.837L15.586 19.894L14.582 19.942C13.7218 19.9793 12.861 19.9986 12 20C11.139 19.9986 10.2782 19.9793 9.418 19.942L8.414 19.894L7.453 19.837L6.553 19.775L5.731 19.712C4.83881 19.6441 3.9992 19.2636 3.36004 18.6374C2.72089 18.0112 2.32319 17.1796 2.237 16.289L2.197 15.864L2.122 14.954C2.04583 13.9711 2.00514 12.9858 2 12C2 11.017 2.052 9.989 2.122 9.046L2.197 8.136L2.237 7.711C2.32316 6.82055 2.72071 5.98905 3.35966 5.36291C3.99861 4.73676 4.83799 4.35612 5.73 4.288L6.551 4.224L7.451 4.163L8.413 4.106L9.417 4.058C10.2775 4.02073 11.1387 4.00139 12 4ZM10 9.575V14.425C10 14.887 10.5 15.175 10.9 14.945L15.1 12.52C15.1914 12.4674 15.2673 12.3916 15.3201 12.3003C15.3729 12.209 15.4007 12.1055 15.4007 12C15.4007 11.8945 15.3729 11.791 15.3201 11.6997C15.2673 11.6084 15.1914 11.5326 15.1 11.48L10.9 9.056C10.8088 9.00332 10.7053 8.9756 10.5999 8.97562C10.4945 8.97563 10.3911 9.00339 10.2998 9.0561C10.2086 9.1088 10.1329 9.1846 10.0802 9.27587C10.0276 9.36713 9.99993 9.47065 10 9.576V9.575Z"/>
  </symbol>
</svg>