<svg xmlns="http://www.w3.org/2000/svg" style="display: none;">
  <symbol id="arrow" viewBox="0 0 13 13">
    <path d="M1.11672 3.31957C0.783314 3.69648 0.783314 4.30765 1.11672 4.68456L5.29362 9.40194C5.9606 10.1552 7.04132 10.1549 7.70796 9.40127L11.8833 4.68109C12.2167 4.30418 12.2167 3.69301 11.8833 3.3161C11.5498 2.93909 11.0093 2.93909 10.6758 3.3161L7.1022 7.35605C6.76871 7.73297 6.22818 7.73297 5.89477 7.35605L2.32414 3.31957C1.99074 2.94266 1.45012 2.94266 1.11672 3.31957Z" />
  </symbol>
  <symbol id="drum" viewBox="0 0 30 30">
    <path d="M2.5 2.5L12.5 12.5M27.5 2.5L17.5 12.5" stroke="white" stroke-width="2" stroke-linecap="round" stroke-linejoin="round"/>
    <path d="M15 17.5C21.9036 17.5 27.5 14.7018 27.5 11.25C27.5 7.79822 21.9036 5 15 5C8.09644 5 2.5 7.79822 2.5 11.25C2.5 14.7018 8.09644 17.5 15 17.5Z" stroke="white" stroke-width="2" stroke-linecap="round" stroke-linejoin="round"/>
    <path d="M8.75 16.75V26.625M15 17.5V27.5M15 27.5C11.6848 27.5 8.50537 26.8415 6.16117 25.6694C3.81696 24.4973 2.5 22.9076 2.5 21.25V11.25M15 27.5C18.3152 27.5 21.4946 26.8415 23.8388 25.6694C26.183 24.4973 27.5 22.9076 27.5 21.25V11.25M21.25 16.75V26.625" stroke="white" stroke-width="2" stroke-linecap="round" stroke-linejoin="round"/>
  </symbol>
  <symbol id="fader" viewBox="0 0 24 24">
    <path d="M7.2 1.59998C7.38443 1.59994 7.5632 1.66362 7.70607 1.78025C7.84893 1.89687 7.94712 2.05928 7.984 2.23998L8 2.39998V11.2C7.99893 11.2266 7.99627 11.2528 7.992 11.2784C8.89577 11.4628 9.70808 11.9538 10.2915 12.6682C10.8749 13.3827 11.1935 14.2768 11.1935 15.1992C11.1935 16.1216 10.8749 17.0156 10.2915 17.7301C9.70808 18.4446 8.89577 18.9356 7.992 19.12L8 19.2V21.6L7.984 21.76C7.94728 21.9408 7.84916 22.1034 7.70628 22.2202C7.5634 22.337 7.38454 22.4008 7.2 22.4008C7.01546 22.4008 6.8366 22.337 6.69372 22.2202C6.55084 22.1034 6.45272 21.9408 6.416 21.76L6.4 21.6V19.2C6.4 19.1733 6.40213 19.1466 6.4064 19.12C5.50131 18.9371 4.68734 18.4468 4.10262 17.7321C3.5179 17.0175 3.19844 16.1226 3.19844 15.1992C3.19844 14.2758 3.5179 13.3809 4.10262 12.6662C4.68734 11.9516 5.50131 11.4612 6.4064 11.2784L6.4 11.2V2.39998C6.4 2.1878 6.48429 1.98432 6.63432 1.83429C6.78434 1.68426 6.98783 1.59998 7.2 1.59998ZM16.8 1.59998C16.9844 1.59994 17.1632 1.66362 17.3061 1.78025C17.4489 1.89687 17.5471 2.05928 17.584 2.23998L17.6 2.39998V4.79998L17.592 4.87838C18.4958 5.0628 19.3081 5.55378 19.8915 6.26825C20.4749 6.98271 20.7935 7.87678 20.7935 8.79917C20.7935 9.72157 20.4749 10.6156 19.8915 11.3301C19.3081 12.0446 18.4958 12.5356 17.592 12.72L17.6 12.8V21.6C17.6002 21.7984 17.5267 21.9898 17.3937 22.137C17.2607 22.2842 17.0778 22.3768 16.8804 22.3967C16.683 22.4167 16.4853 22.3625 16.3255 22.2449C16.1658 22.1272 16.0555 21.9544 16.016 21.76L16 21.6V12.8C16 12.7733 16.0021 12.7466 16.0064 12.72C15.1013 12.5371 14.2873 12.0468 13.7026 11.3321C13.1179 10.6175 12.7984 9.72255 12.7984 8.79917C12.7984 7.8758 13.1179 6.98086 13.7026 6.26621C14.2873 5.55156 15.1013 5.06121 16.0064 4.87838L16 4.79998V2.39998C16 2.1878 16.0843 1.98432 16.2343 1.83429C16.3843 1.68426 16.5878 1.59998 16.8 1.59998ZM7.2 12.8C6.56348 12.8 5.95303 13.0528 5.50294 13.5029C5.05286 13.953 4.8 14.5635 4.8 15.2C4.8 15.8365 5.05286 16.4469 5.50294 16.897C5.95303 17.3471 6.56348 17.6 7.2 17.6C7.83652 17.6 8.44697 17.3471 8.89706 16.897C9.34715 16.4469 9.6 15.8365 9.6 15.2C9.6 14.5635 9.34715 13.953 8.89706 13.5029C8.44697 13.0528 7.83652 12.8 7.2 12.8ZM16.8 6.39998C16.4848 6.39998 16.1727 6.46205 15.8816 6.58266C15.5904 6.70328 15.3258 6.88006 15.1029 7.10292C14.8801 7.32578 14.7033 7.59035 14.5827 7.88154C14.4621 8.17272 14.4 8.4848 14.4 8.79998C14.4 9.11515 14.4621 9.42723 14.5827 9.71842C14.7033 10.0096 14.8801 10.2742 15.1029 10.497C15.3258 10.7199 15.5904 10.8967 15.8816 11.0173C16.1727 11.1379 16.4848 11.2 16.8 11.2C17.4365 11.2 18.047 10.9471 18.4971 10.497C18.9471 10.0469 19.2 9.43649 19.2 8.79998C19.2 8.16346 18.9471 7.55301 18.4971 7.10292C18.047 6.65283 17.4365 6.39998 16.8 6.39998Z" stroke="white" stroke-width="0.7"/>
  </symbol>
  <symbol id="megaphone" viewBox="0 0 29 29">
    <path d="M10.875 20.5417C10.875 20.5417 19.3333 21.75 22.9583 25.375H24.1667C24.4871 25.375 24.7945 25.2477 25.0211 25.0211C25.2477 24.7945 25.375 24.4871 25.375 24.1667V16.8405C25.8943 16.707 26.3544 16.4046 26.683 15.9809C27.0116 15.5571 27.1899 15.0362 27.1899 14.5C27.1899 13.9638 27.0116 13.4429 26.683 13.0191C26.3544 12.5954 25.8943 12.293 25.375 12.1595V4.83333C25.375 4.51286 25.2477 4.20552 25.0211 3.97891C24.7945 3.75231 24.4871 3.625 24.1667 3.625H22.9583C19.3333 7.25 10.875 8.45833 10.875 8.45833H6.04167C5.40073 8.45833 4.78604 8.71295 4.33283 9.16616C3.87961 9.61937 3.625 10.2341 3.625 10.875V18.125C3.625 18.7659 3.87961 19.3806 4.33283 19.8338C4.78604 20.2871 5.40073 20.5417 6.04167 20.5417H7.25L8.45833 26.5833H10.875V20.5417ZM13.2917 10.4654C14.117 10.289 15.1368 10.0425 16.24 9.71983C18.2676 9.12292 20.8437 8.18404 22.9583 6.73525V22.2635C20.8437 20.816 18.2664 19.8771 16.24 19.2802C15.2667 18.9958 14.2833 18.7475 13.2917 18.5358V10.4654ZM6.04167 10.875H10.875V18.125H6.04167V10.875Z" />
  </symbol>
  <symbol id="melody" viewBox="0 0 25 25">
    <path d="M21.8749 3.125V16.1458C21.8749 17.1128 21.4908 18.0401 20.8071 18.7238C20.1234 19.4076 19.196 19.7917 18.2291 19.7917C17.2622 19.7917 16.3348 19.4076 15.6511 18.7238C14.9674 18.0401 14.5833 17.1128 14.5833 16.1458C14.5833 15.1789 14.9674 14.2516 15.6511 13.5678C16.3348 12.8841 17.2622 12.5 18.2291 12.5C18.7916 12.5 19.3228 12.625 19.7916 12.8542V6.73958L9.37492 8.95833V18.2292C9.37492 19.1961 8.99081 20.1234 8.30708 20.8072C7.62335 21.4909 6.69602 21.875 5.72909 21.875C4.76215 21.875 3.83482 21.4909 3.15109 20.8072C2.46737 20.1234 2.08325 19.1961 2.08325 18.2292C2.08325 17.2622 2.46737 16.3349 3.15109 15.6512C3.83482 14.9674 4.76215 14.5833 5.72909 14.5833C6.29159 14.5833 6.82284 14.7083 7.29159 14.9375V6.25L21.8749 3.125Z" />
  </symbol>
  <symbol id="mic" viewBox="0 0 29 29">
    <path d="M14.5 18C13.4931 18 12.6372 17.6476 11.9323 16.9427C11.2275 16.2378 10.8751 15.3819 10.8751 14.375V7.125C10.8751 6.11806 11.2275 5.26215 11.9323 4.55729C12.6372 3.85243 13.4931 3.5 14.5 3.5C15.507 3.5 16.3629 3.85243 17.0678 4.55729C17.7726 5.26215 18.125 6.11806 18.125 7.125V14.375C18.125 15.3819 17.7726 16.2378 17.0678 16.9427C16.3629 17.6476 15.507 18 14.5 18ZM13.2917 25.25V22.7427C11.4389 22.4809 9.8532 21.6955 8.53451 20.3865C7.21581 19.0774 6.41509 17.4865 6.13234 15.6135C6.09206 15.2712 6.18269 14.9792 6.40422 14.7375C6.62574 14.4958 6.90769 14.375 7.25005 14.375C7.59241 14.375 7.87959 14.491 8.11159 14.723C8.34359 14.955 8.49947 15.2418 8.57922 15.5833C8.86116 16.9931 9.56119 18.151 10.6793 19.0573C11.7974 19.9635 13.071 20.4167 14.5 20.4167C15.95 20.4167 17.2289 19.9587 18.3365 19.0428C19.4441 18.1269 20.1389 16.9737 20.4209 15.5833C20.5014 15.241 20.6577 14.9542 20.8897 14.723C21.1217 14.4918 21.4085 14.3758 21.75 14.375C22.0916 14.3742 22.3736 14.495 22.5959 14.7375C22.8182 14.98 22.9088 15.272 22.8678 15.6135C22.5858 17.4462 21.7903 19.0271 20.4813 20.3563C19.1723 21.6854 17.5813 22.4809 15.7084 22.7427V25.25C15.7084 25.5924 15.5924 25.8795 15.3604 26.1115C15.1284 26.3435 14.8416 26.4591 14.5 26.4583C14.1585 26.4575 13.8717 26.3415 13.6397 26.1103C13.4077 25.8791 13.2917 25.5924 13.2917 25.25ZM14.5 15.5833C14.8424 15.5833 15.1296 15.4673 15.3616 15.2353C15.5936 15.0033 15.7092 14.7166 15.7084 14.375V7.125C15.7084 6.78264 15.5924 6.49586 15.3604 6.26467C15.1284 6.03347 14.8416 5.91747 14.5 5.91667C14.1585 5.91586 13.8717 6.03186 13.6397 6.26467C13.4077 6.49747 13.2917 6.78425 13.2917 7.125V14.375C13.2917 14.7174 13.4077 15.0045 13.6397 15.2365C13.8717 15.4685 14.1585 15.5841 14.5 15.5833Z" />
  </symbol>
  <symbol id="pause" viewBox="0 0 40 40">
    <path d="M25.5557 39.4444V0.555542H36.6668V39.4444H25.5557ZM3.3335 39.4444V0.555542H14.4446V39.4444H3.3335Z" />
  </symbol>
  <symbol id="person" viewBox="0 0 29 29">
    <path d="M14.5 14.5C13.1708 14.5 12.033 14.0267 11.0865 13.0802C10.1399 12.1337 9.66666 10.9958 9.66666 9.66665C9.66666 8.33748 10.1399 7.19963 11.0865 6.2531C12.033 5.30658 13.1708 4.83331 14.5 4.83331C15.8292 4.83331 16.967 5.30658 17.9135 6.2531C18.8601 7.19963 19.3333 8.33748 19.3333 9.66665C19.3333 10.9958 18.8601 12.1337 17.9135 13.0802C16.967 14.0267 15.8292 14.5 14.5 14.5ZM4.83333 24.1666V20.7833C4.83333 20.0986 5.00975 19.4695 5.36258 18.8959C5.71541 18.3223 6.18344 17.8841 6.76666 17.5812C8.01527 16.9569 9.28402 16.4889 10.5729 16.1771C11.8618 15.8654 13.1708 15.7091 14.5 15.7083C15.8292 15.7075 17.1382 15.8638 18.4271 16.1771C19.716 16.4905 20.9847 16.9585 22.2333 17.5812C22.8174 17.8833 23.2858 18.3215 23.6386 18.8959C23.9915 19.4703 24.1675 20.0994 24.1667 20.7833V24.1666H4.83333ZM7.24999 21.75H21.75V20.7833C21.75 20.5618 21.6948 20.3604 21.5845 20.1791C21.4741 19.9979 21.3279 19.8569 21.1458 19.7562C20.0583 19.2125 18.9608 18.8049 17.8531 18.5334C16.7455 18.2619 15.6278 18.1258 14.5 18.125C13.3722 18.1242 12.2545 18.2603 11.1469 18.5334C10.0392 18.8065 8.94166 19.2141 7.85416 19.7562C7.67291 19.8569 7.5267 19.9979 7.41554 20.1791C7.30437 20.3604 7.24919 20.5618 7.24999 20.7833V21.75ZM14.5 12.0833C15.1646 12.0833 15.7337 11.8469 16.2074 11.374C16.681 10.9012 16.9175 10.332 16.9167 9.66665C16.9159 9.00126 16.6794 8.43254 16.2074 7.96048C15.7353 7.48842 15.1662 7.25159 14.5 7.24998C13.8338 7.24837 13.2651 7.4852 12.7938 7.96048C12.3226 8.43576 12.0857 9.00448 12.0833 9.66665C12.0809 10.3288 12.3177 10.8979 12.7938 11.374C13.2699 11.8501 13.8386 12.0865 14.5 12.0833Z" />
  </symbol>
  <symbol id="play" viewBox="0 0 40 40">
    <path d="M5.26312 1.69336L35.0114 20L5.26312 38.3066V1.69336Z" stroke-width="2" stroke-linecap="round" stroke-linejoin="round"/>
  </symbol>
  <symbol id="scroll" viewBox="0 0 50 50">
    <path d="M23.8958 33.9125C24.1888 34.2051 24.5859 34.3695 25 34.3695C25.414 34.3695 25.8112 34.2051 26.1041 33.9125L30.7916 29.2271C31.0676 28.9309 31.2179 28.5391 31.2108 28.1343C31.2036 27.7295 31.0396 27.3433 30.7534 27.057C30.4671 26.7708 30.0809 26.6068 29.6761 26.5996C29.2713 26.5925 28.8795 26.7427 28.5833 27.0187L25 30.5958L21.4166 27.0146C21.2724 26.8654 21.1 26.7465 20.9093 26.6647C20.7186 26.5829 20.5136 26.5399 20.3061 26.5382C20.0986 26.5365 19.8929 26.5761 19.7009 26.6547C19.5089 26.7334 19.3345 26.8495 19.1879 26.9963C19.0413 27.1431 18.9253 27.3176 18.8468 27.5096C18.7684 27.7017 18.7289 27.9075 18.7308 28.1149C18.7327 28.3224 18.7759 28.5274 18.8579 28.718C18.9399 28.9086 19.059 29.0809 19.2083 29.225L23.8958 33.9125ZM25 18.8646C24.5579 18.8646 24.134 18.689 23.8215 18.3764C23.5089 18.0639 23.3333 17.6399 23.3333 17.1979C23.3333 16.7559 23.5089 16.332 23.8215 16.0194C24.134 15.7068 24.5579 15.5312 25 15.5312C25.442 15.5312 25.8659 15.7068 26.1785 16.0194C26.491 16.332 26.6666 16.7559 26.6666 17.1979C26.6666 17.6399 26.491 18.0639 26.1785 18.3764C25.8659 18.689 25.442 18.8646 25 18.8646ZM23.3333 23.0646C23.3333 23.2835 23.3764 23.5002 23.4602 23.7024C23.5439 23.9046 23.6667 24.0883 23.8215 24.2431C23.9762 24.3979 24.16 24.5206 24.3622 24.6044C24.5644 24.6881 24.7811 24.7313 25 24.7313C25.2188 24.7313 25.4356 24.6881 25.6378 24.6044C25.84 24.5206 26.0237 24.3979 26.1785 24.2431C26.3333 24.0883 26.456 23.9046 26.5398 23.7024C26.6235 23.5002 26.6666 23.2835 26.6666 23.0646C26.6666 22.6226 26.491 22.1986 26.1785 21.8861C25.8659 21.5735 25.442 21.3979 25 21.3979C24.5579 21.3979 24.134 21.5735 23.8215 21.8861C23.5089 22.1986 23.3333 22.6226 23.3333 23.0646Z"/>
    <path fill-rule="evenodd" clip-rule="evenodd" d="M25 4.16876C20.856 4.16876 16.8817 5.81496 13.9515 8.74522C11.0212 11.6755 9.375 15.6498 9.375 19.7938V30.2104C9.375 34.3544 11.0212 38.3287 13.9515 41.259C16.8817 44.1892 20.856 45.8354 25 45.8354C29.144 45.8354 33.1183 44.1892 36.0485 41.259C38.9788 38.3287 40.625 34.3544 40.625 30.2104V19.7938C40.625 15.6498 38.9788 11.6755 36.0485 8.74522C33.1183 5.81496 29.144 4.16876 25 4.16876ZM12.5 19.7938C12.5 16.4786 13.817 13.2991 16.1612 10.9549C18.5054 8.61072 21.6848 7.29376 25 7.29376C28.3152 7.29376 31.4946 8.61072 33.8388 10.9549C36.183 13.2991 37.5 16.4786 37.5 19.7938V30.2104C37.5 33.5256 36.183 36.7051 33.8388 39.0493C31.4946 41.3935 28.3152 42.7104 25 42.7104C21.6848 42.7104 18.5054 41.3935 16.1612 39.0493C13.817 36.7051 12.5 33.5256 12.5 30.2104V19.7938Z" />
  </symbol>
  <symbol id="telegram" viewBox="0 0 24 24">
    <path d="M12 2C6.48 2 2 6.48 2 12C2 17.52 6.48 22 12 22C17.52 22 22 17.52 22 12C22 6.48 17.52 2 12 2ZM16.64 8.8C16.49 10.38 15.84 14.22 15.51 15.99C15.37 16.74 15.09 16.99 14.83 17.02C14.25 17.07 13.81 16.64 13.25 16.27C12.37 15.69 11.87 15.33 11.02 14.77C10.03 14.12 10.67 13.76 11.24 13.18C11.39 13.03 13.95 10.7 14 10.49C14.0069 10.4582 14.006 10.4252 13.9973 10.3938C13.9886 10.3624 13.9724 10.3337 13.95 10.31C13.89 10.26 13.81 10.28 13.74 10.29C13.65 10.31 12.25 11.24 9.52 13.08C9.12 13.35 8.76 13.49 8.44 13.48C8.08 13.47 7.4 13.28 6.89 13.11C6.26 12.91 5.77 12.8 5.81 12.45C5.83 12.27 6.08 12.09 6.55 11.9C9.47 10.63 11.41 9.79 12.38 9.39C15.16 8.23 15.73 8.03 16.11 8.03C16.19 8.03 16.38 8.05 16.5 8.15C16.6 8.23 16.63 8.34 16.64 8.42C16.63 8.48 16.65 8.66 16.64 8.8Z" />
  </symbol>
  <symbol id="tiktok" viewBox="0 0 24 24">
    <path d="M16.6 5.82C15.9166 5.03953 15.5399 4.0374 15.54 3H12.45V15.4C12.4267 16.0712 12.1435 16.7071 11.6603 17.1735C11.1771 17.6399 10.5316 17.9004 9.86 17.9C8.44 17.9 7.26 16.74 7.26 15.3C7.26 13.58 8.92 12.29 10.63 12.82V9.66C7.18 9.2 4.16 11.88 4.16 15.3C4.16 18.63 6.92 21 9.85 21C12.99 21 15.54 18.45 15.54 15.3V9.01C16.793 9.90985 18.2974 10.3926 19.84 10.39V7.3C19.84 7.3 17.96 7.39 16.6 5.82Z" />
  </symbol>
  <symbol id="wave" viewBox="0 0 40 40">
    <path d="M1.25 15C0.5625 15 0 15.5625 0 16.25V23.75C0 24.4375 0.5625 25 1.25 25C1.9375 25 2.5 24.4375 2.5 23.75V16.25C2.5 15.5625 1.9375 15 1.25 15ZM36.25 15C35.5625 15 35 15.5625 35 16.25V23.75C35 24.4375 35.5625 25 36.25 25C36.9375 25 37.5 24.4375 37.5 23.75V16.25C37.5 15.5625 36.9375 15 36.25 15ZM6.25 7.5C5.5625 7.5 5 8.0625 5 8.75V31.25C5 31.9375 5.5625 32.5 6.25 32.5C6.9375 32.5 7.5 31.9375 7.5 31.25V8.75C7.5 8.0625 6.9375 7.5 6.25 7.5ZM11.25 12.5C10.5625 12.5 10 13.0625 10 13.75V26.25C10 26.9375 10.5625 27.5 11.25 27.5C11.9375 27.5 12.5 26.9375 12.5 26.25V13.75C12.5 13.0625 11.9375 12.5 11.25 12.5ZM16.25 17.5C15.5625 17.5 15 18.0625 15 18.75V21.25C15 21.9375 15.5625 22.5 16.25 22.5C16.9375 22.5 17.5 21.9375 17.5 21.25V18.75C17.5 18.0625 16.9375 17.5 16.25 17.5ZM21.25 12.5C20.5625 12.5 20 13.0625 20 13.75V26.25C20 26.9375 20.5625 27.5 21.25 27.5C21.9375 27.5 22.5 26.9375 22.5 26.25V13.75C22.5 13.0625 21.9375 12.5 21.25 12.5ZM26.25 2.5C25.5625 2.5 25 3.0625 25 3.75V36.25C25 36.9375 25.5625 37.5 26.25 37.5C26.9375 37.5 27.5 36.9375 27.5 36.25V3.75C27.5 3.0625 26.9375 2.5 26.25 2.5ZM31.25 7.5C30.5625 7.5 30 8.0625 30 8.75V31.25C30 31.9375 30.5625 32.5 31.25 32.5C31.9375 32.5 32.5 31.9375 32.5 31.25V8.75C32.5 8.0625 31.9375 7.5 31.25 7.5Z" />
  </symbol>
  <symbol id="youtube" viewBox="0 0 24 24">
    <path fill="currentColor"
      fill-rule="evenodd"
      clip-rule="evenodd"
      d="M12 4C12.855 4 13.732 4.022 14.582 4.058L15.586 4.106L16.547 4.163L17.447 4.224L18.269 4.288C19.1612 4.35589 20.0008 4.73643 20.64 5.3626C21.2791 5.98877 21.6768 6.8204 21.763 7.711L21.803 8.136L21.878 9.046C21.948 9.989 22 11.017 22 12C22 12.983 21.948 14.011 21.878 14.954L21.803 15.864L21.763 16.289C21.6768 17.1798 21.2789 18.0115 20.6396 18.6377C20.0002 19.2639 19.1604 19.6443 18.268 19.712L17.448 19.775L16.548 19.837L15.586 19.894L14.582 19.942C13.7218 19.9793 12.861 19.9986 12 20C11.139 19.9986 10.2782 19.9793 9.418 19.942L8.414 19.894L7.453 19.837L6.553 19.775L5.731 19.712C4.83881 19.6441 3.9992 19.2636 3.36004 18.6374C2.72089 18.0112 2.32319 17.1796 2.237 16.289L2.197 15.864L2.122 14.954C2.04583 13.9711 2.00514 12.9858 2 12C2 11.017 2.052 9.989 2.122 9.046L2.197 8.136L2.237 7.711C2.32316 6.82055 2.72071 5.98905 3.35966 5.36291C3.99861 4.73676 4.83799 4.35612 5.73 4.288L6.551 4.224L7.451 4.163L8.413 4.106L9.417 4.058C10.2775 4.02073 11.1387 4.00139 12 4ZM10 9.575V14.425C10 14.887 10.5 15.175 10.9 14.945L15.1 12.52C15.1914 12.4674 15.2673 12.3916 15.3201 12.3003C15.3729 12.209 15.4007 12.1055 15.4007 12C15.4007 11.8945 15.3729 11.791 15.3201 11.6997C15.2673 11.6084 15.1914 11.5326 15.1 11.48L10.9 9.056C10.8088 9.00332 10.7053 8.9756 10.5999 8.97562C10.4945 8.97563 10.3911 9.00339 10.2998 9.0561C10.2086 9.1088 10.1329 9.1846 10.0802 9.27587C10.0276 9.36713 9.99993 9.47065 10 9.576V9.575Z"/>
  </symbol>
</svg>